<?xml version="1.0" encoding="UTF-8" standalone="no"?>
<svg
   version="1.0"
   width="1581.2037pt"
   height="1128.5704pt"
   viewBox="0 0 1581.2037 1128.5704"
   preserveAspectRatio="xMidYMid"
   id="svg65"
   sodipodi:docname="network-scheme-1.svg"
   xml:space="preserve"
   inkscape:version="1.3 (0e150ed, 2023-07-21)"
   inkscape:export-filename="network-scheme-1.png"
   inkscape:export-xdpi="300"
   inkscape:export-ydpi="300"
   xmlns:inkscape="http://www.inkscape.org/namespaces/inkscape"
   xmlns:sodipodi="http://sodipodi.sourceforge.net/DTD/sodipodi-0.dtd"
   xmlns="http://www.w3.org/2000/svg"
   xmlns:svg="http://www.w3.org/2000/svg"><defs
     id="defs65"><marker
       style="overflow:visible"
       id="ConcaveTriangle"
       refX="0"
       refY="0"
       orient="auto-start-reverse"
       inkscape:stockid="Concave triangle arrow"
       markerWidth="2"
       markerHeight="2"
       viewBox="0 0 1 1"
       inkscape:isstock="true"
       inkscape:collect="always"
       preserveAspectRatio="xMidYMid"><path
         transform="scale(0.7)"
         d="M -2,-4 9,0 -2,4 c 2,-2.33 2,-5.66 0,-8 z"
         style="fill:context-stroke;fill-rule:evenodd;stroke:none"
         id="path7" /></marker><inkscape:path-effect
       effect="bspline"
       id="path-effect87"
       is_visible="true"
       lpeversion="1.3"
       weight="33.333333"
       steps="2"
       helper_size="0"
       apply_no_weight="true"
       apply_with_weight="true"
       only_selected="false"
       uniform="false" /><inkscape:path-effect
       effect="bspline"
       id="path-effect86"
       is_visible="true"
       lpeversion="1.3"
       weight="33.333333"
       steps="2"
       helper_size="0"
       apply_no_weight="true"
       apply_with_weight="true"
       only_selected="false"
       uniform="false" /><inkscape:path-effect
       effect="bspline"
       id="path-effect85"
       is_visible="true"
       lpeversion="1.3"
       weight="33.333333"
       steps="2"
       helper_size="0"
       apply_no_weight="true"
       apply_with_weight="true"
       only_selected="false"
       uniform="false" /><inkscape:path-effect
       effect="bspline"
       id="path-effect84"
       is_visible="true"
       lpeversion="1.3"
       weight="33.333333"
       steps="2"
       helper_size="0"
       apply_no_weight="true"
       apply_with_weight="true"
       only_selected="false"
       uniform="false" /><inkscape:path-effect
       effect="bspline"
       id="path-effect83"
       is_visible="true"
       lpeversion="1.3"
       weight="33.333333"
       steps="2"
       helper_size="0"
       apply_no_weight="true"
       apply_with_weight="true"
       only_selected="false"
       uniform="false" /><inkscape:path-effect
       effect="bspline"
       id="path-effect82"
       is_visible="true"
       lpeversion="1.3"
       weight="33.333333"
       steps="2"
       helper_size="0"
       apply_no_weight="true"
       apply_with_weight="true"
       only_selected="false"
       uniform="false" /><marker
       style="overflow:visible"
       id="ConcaveTriangle-4"
       refX="0"
       refY="0"
       orient="auto-start-reverse"
       inkscape:stockid="Concave triangle arrow"
       markerWidth="2"
       markerHeight="2"
       viewBox="0 0 1 1"
       inkscape:isstock="true"
       inkscape:collect="always"
       preserveAspectRatio="xMidYMid"><path
         transform="scale(0.7)"
         d="M -2,-4 9,0 -2,4 c 2,-2.33 2,-5.66 0,-8 z"
         style="fill:context-stroke;fill-rule:evenodd;stroke:none"
         id="path7-1" /></marker><marker
       style="overflow:visible"
       id="ConcaveTriangle-4-8"
       refX="0"
       refY="0"
       orient="auto-start-reverse"
       inkscape:stockid="Concave triangle arrow"
       markerWidth="2"
       markerHeight="2"
       viewBox="0 0 1 1"
       inkscape:isstock="true"
       inkscape:collect="always"
       preserveAspectRatio="xMidYMid"><path
         transform="scale(0.7)"
         d="M -2,-4 9,0 -2,4 c 2,-2.33 2,-5.66 0,-8 z"
         style="fill:context-stroke;fill-rule:evenodd;stroke:none"
         id="path7-1-9" /></marker><marker
       style="overflow:visible"
       id="ConcaveTriangle-4-8-9"
       refX="0"
       refY="0"
       orient="auto-start-reverse"
       inkscape:stockid="Concave triangle arrow"
       markerWidth="2"
       markerHeight="2"
       viewBox="0 0 1 1"
       inkscape:isstock="true"
       inkscape:collect="always"
       preserveAspectRatio="xMidYMid"><path
         transform="scale(0.7)"
         d="M -2,-4 9,0 -2,4 c 2,-2.33 2,-5.66 0,-8 z"
         style="fill:context-stroke;fill-rule:evenodd;stroke:none"
         id="path7-1-9-1" /></marker></defs><sodipodi:namedview
     id="namedview65"
     pagecolor="#ffffff"
     bordercolor="#666666"
     borderopacity="1.0"
     inkscape:showpageshadow="2"
     inkscape:pageopacity="0.0"
     inkscape:pagecheckerboard="0"
     inkscape:deskcolor="#d1d1d1"
     inkscape:document-units="pt"
     inkscape:zoom="0.35631237"
     inkscape:cx="980.88092"
     inkscape:cy="867.2166"
     inkscape:window-width="1440"
     inkscape:window-height="872"
     inkscape:window-x="0"
     inkscape:window-y="0"
     inkscape:window-maximized="0"
     inkscape:current-layer="g65" /><g
     transform="matrix(0.1,0,0,-0.1,-217.60404,1028.0792)"
     fill="#000000"
     stroke="none"
     id="g65"><text
       xml:space="preserve"
       style="font-size:720px;line-height:1.25;font-family:'Latin Modern Math';-inkscape-font-specification:'Latin Modern Math';stroke-width:7.5"
       x="4858.3931"
       y="-7132.3418"
       id="text78"
       transform="scale(1,-1)"><tspan
         sodipodi:role="line"
         id="tspan78"
         style="stroke-width:7.5"
         x="4858.3931"
         y="-7132.3418" /></text><text
       xml:space="preserve"
       style="font-size:320px;line-height:1.25;font-family:'Latin Modern Math';-inkscape-font-specification:'Latin Modern Math';text-align:center;text-anchor:middle;stroke-width:7.5"
       x="3468.5752"
       y="-5921.3481"
       id="text80"
       transform="scale(1,-1)"><tspan
         sodipodi:role="line"
         id="tspan80"
         style="font-size:320px;text-align:center;text-anchor:middle;stroke-width:7.5"
         x="3468.5752"
         y="-5921.3481">Internet</tspan><tspan
         sodipodi:role="line"
         style="font-size:320px;text-align:center;text-anchor:middle;stroke-width:7.5"
         x="3468.5752"
         y="-5521.3481"
         id="tspan81">1</tspan></text><path
       d="m 10270.602,869.27664 c -128.214,-81.705 -225.003,-187.2931 -287.853,-312.9932 l -51.5375,-103.0741 h -60.336 c -81.705,0 -162.1533,-56.565 -237.5734,-170.9521 -52.794,-77.9341 -59.079,-94.2751 -70.392,-197.349205 -20.112,-175.980095 1.257,-305.451195 67.878,-423.609315 72.9061,-128.2141 135.7564,-175.98014 231.2884,-175.98014 h 70.392 l 47.7665,-103.07409 c 40.224,-87.99007 65.364,-120.6721 153.354,-204.89117 57.822,-56.56505 135.756,-120.67215 170.952,-143.29815 65.364,-40.22397 69.135,-41.48097 169.695,-35.19597 201.12,13.82697 225.003,22.62597 326.82,119.41507 l 59.08,56.56505 70.392,-60.33605 c 101.817,-86.7331 188.551,-118.15807 320.536,-119.41507 105.588,0 108.102,1.257 189.807,55.30797 109.359,72.90611 197.349,177.23719 267.741,319.27831 l 57.823,115.6441 h 70.392 c 56.565,0 82.962,7.542 137.013,40.22403 60.336,35.19603 70.392,47.76604 105.588,134.49911 82.962,201.12012 81.705,457.54832 -3.771,625.98652 -37.71,76.677 -50.28,89.247 -118.158,126.9571 -56.565,30.168 -90.504,40.224 -137.013,40.224 h -62.85 l -45.253,98.0461 c -56.565,124.4431 -168.438,260.1992 -268.998,326.8203 -76.677,51.537 -81.705,52.794 -186.036,52.794 -137.013,0 -226.261,-31.425 -324.307,-116.9011 l -72.906,-62.85 -65.365,64.107 c -55.308,54.051 -79.191,67.8781 -159.639,89.2471 -54.051,15.084 -130.728,26.397 -182.265,26.397 -84.219,0 -93.018,-3.771 -182.265,-61.5931 z m 356.988,10.0561 c 75.42,-21.3691 100.56,-37.7101 159.639,-95.5321 l 70.393,-67.8781 84.219,70.3921 c 108.102,91.7611 178.495,119.4151 309.223,119.4151 96.789,0 103.074,-1.257 179.751,-52.7941 101.817,-67.878 194.835,-181.0081 262.713,-316.7642 l 52.795,-108.1021 h 61.593 c 46.509,0 80.448,-10.056 134.499,-40.2241 62.85,-33.939 76.677,-49.023 110.616,-118.158 79.191,-159.6392 80.448,-409.7824 3.771,-592.0475 -30.168,-71.64906 -46.509,-91.76108 -96.789,-125.70011 -51.537,-35.19603 -72.906,-41.48103 -133.242,-41.48103 h -72.906 l -55.309,-110.61609 c -67.878,-135.75612 -160.896,-248.88621 -265.227,-323.04924 -76.677,-55.3081 -81.705,-56.5651 -173.466,-56.5651 -125.7,0 -209.92,31.425 -316.765,119.41512 l -84.219,69.13506 -82.963,-69.13506 c -98.046,-81.70512 -199.863,-119.41512 -321.792,-119.41512 -67.878,0 -85.476,5.028 -145.812,45.2521 -129.471,85.47603 -247.629,213.69014 -309.222,335.61924 l -55.3085,109.35909 h -70.392 c -60.336,0 -77.934,6.285 -119.415,38.96703 -27.6543,21.36902 -71.6493,77.93407 -99.3034,125.70011 -65.364,110.6161 -86.733,242.6012 -65.364,406.011295 12.57,93.018105 21.369,116.901105 67.8781,188.550205 71.649,106.845 145.8123,158.3821 230.0313,158.3821 h 62.85 l 59.0795,116.9011 c 65.364,128.2141 142.041,212.4332 275.283,304.1942 75.42,51.5371 85.476,55.3081 167.181,55.3081 52.794,1.257 121.929,-8.799 175.98,-25.14 z"
       id="path1-2-3-2-5"
       style="fill:#000000;stroke:none;stroke-width:0;stroke-dasharray:none" /><path
       d="m 16117.959,6824.1255 c -128.214,-81.7049 -225.003,-187.293 -287.853,-312.9931 l -51.537,-103.0741 h -60.336 c -81.705,0 -162.153,-56.565 -237.573,-170.9522 -52.794,-77.9341 -59.079,-94.2751 -70.392,-197.3491 -20.112,-175.9801 1.257,-305.4512 67.878,-423.6093 72.906,-128.2142 135.756,-175.9802 231.288,-175.9802 h 70.392 l 47.766,-103.0741 c 40.224,-87.99 65.364,-120.6721 153.354,-204.8911 57.822,-56.5651 135.756,-120.6721 170.952,-143.2981 65.364,-40.2241 69.135,-41.4811 169.695,-35.1961 201.12,13.827 225.003,22.626 326.82,119.4151 l 59.08,56.5651 70.392,-60.3362 c 101.817,-86.733 188.551,-118.158 320.536,-119.4151 105.588,0 108.102,1.257 189.807,55.3081 109.359,72.906 197.349,177.2372 267.741,319.2782 l 57.823,115.6442 h 70.392 c 56.565,0 82.962,7.542 137.013,40.2241 60.336,35.196 70.392,47.766 105.588,134.4991 82.962,201.1201 81.705,457.5483 -3.771,625.9865 -37.71,76.677 -50.28,89.247 -118.158,126.9571 -56.565,30.1679 -90.504,40.224 -137.013,40.224 h -62.85 l -45.253,98.046 c -56.565,124.4432 -168.438,260.1992 -268.998,326.8204 -76.677,51.537 -81.705,52.794 -186.036,52.794 -137.013,0 -226.261,-31.425 -324.307,-116.9012 l -72.906,-62.85 -65.365,64.107 c -55.308,54.051 -79.191,67.8782 -159.639,89.2471 -54.051,15.084 -130.728,26.3971 -182.265,26.3971 -84.219,0 -93.018,-3.7711 -182.265,-61.5932 z m 356.988,10.0561 c 75.42,-21.3691 100.56,-37.7101 159.639,-95.5321 l 70.393,-67.8781 84.219,70.3921 c 108.102,91.7612 178.495,119.4151 309.223,119.4151 96.789,0 103.074,-1.257 179.751,-52.7941 101.817,-67.878 194.835,-181.0081 262.713,-316.7642 l 52.795,-108.1021 h 61.593 c 46.509,0 80.448,-10.056 134.499,-40.2241 62.85,-33.939 76.677,-49.023 110.616,-118.158 79.191,-159.6392 80.448,-409.7824 3.771,-592.0475 -30.168,-71.6491 -46.509,-91.7611 -96.789,-125.7001 -51.537,-35.196 -72.906,-41.481 -133.242,-41.481 h -72.906 l -55.309,-110.6161 c -67.878,-135.7562 -160.896,-248.8862 -265.227,-323.0493 -76.677,-55.3081 -81.705,-56.5651 -173.466,-56.5651 -125.7,0 -209.92,31.4251 -316.765,119.4151 l -84.219,69.1351 -82.963,-69.1351 c -98.046,-81.705 -199.863,-119.4151 -321.792,-119.4151 -67.878,0 -85.476,5.0281 -145.812,45.2521 -129.471,85.4761 -247.629,213.6902 -309.222,335.6193 l -55.308,109.3591 h -70.392 c -60.336,0 -77.934,6.285 -119.415,38.967 -27.654,21.369 -71.649,77.9341 -99.303,125.7001 -65.364,110.6161 -86.733,242.6012 -65.364,406.0113 12.57,93.0181 21.369,116.9011 67.878,188.5502 71.649,106.845 145.812,158.3821 230.031,158.3821 h 62.85 l 59.079,116.9011 c 65.364,128.2141 142.041,212.4332 275.283,304.1942 75.42,51.5371 85.476,55.3081 167.181,55.3081 52.794,1.257 121.929,-8.799 175.98,-25.14 z"
       id="path1-2-3-2-5-2-3-1"
       style="fill:#000000;stroke:none;stroke-width:0;stroke-dasharray:none" /><path
       d="m 5710.8092,10219.199 c -128.214,-81.705 -225.003,-187.293 -287.853,-312.9932 l -51.537,-103.0741 h -60.336 c -81.705,0 -162.153,-56.565 -237.573,-170.9521 -52.794,-77.9341 -59.079,-94.2751 -70.392,-197.3492 -20.112,-175.9801 1.257,-305.4512 67.878,-423.6093 72.906,-128.2141 135.756,-175.9802 231.288,-175.9802 h 70.392 l 47.766,-103.0741 c 40.224,-87.99 65.364,-120.6721 153.354,-204.8911 57.822,-56.5651 135.756,-120.6721 170.952,-143.2981 65.364,-40.2241 69.135,-41.4811 169.695,-35.1961 201.12,13.827 225.003,22.626 326.82,119.4151 l 59.08,56.5651 70.392,-60.3361 c 101.8167,-86.733 188.5507,-118.1581 320.5357,-119.4151 105.588,0 108.102,1.257 189.807,55.3081 109.359,72.906 197.349,177.2371 267.741,319.2782 l 57.823,115.6441 h 70.392 c 56.565,0 82.962,7.542 137.013,40.2241 60.336,35.196 70.392,47.766 105.588,134.4991 82.962,201.1201 81.705,457.5483 -3.771,625.9865 -37.71,76.677 -50.28,89.247 -118.158,126.9571 -56.565,30.168 -90.504,40.224 -137.013,40.224 h -62.85 l -45.253,98.0461 c -56.565,124.4432 -168.438,260.1992 -268.998,326.8202 -76.677,51.537 -81.705,52.794 -186.036,52.794 -137.013,0 -226.261,-31.425 -324.3067,-116.901 l -72.906,-62.85 -65.365,64.107 c -55.308,54.051 -79.191,67.878 -159.639,89.247 -54.051,15.084 -130.728,26.397 -182.265,26.397 -84.219,0 -93.018,-3.771 -182.265,-61.593 z m 356.988,10.056 c 75.42,-21.369 100.56,-37.71 159.639,-95.532 l 70.393,-67.878 84.2187,70.392 c 108.102,91.761 178.495,119.415 309.223,119.415 96.789,0 103.074,-1.257 179.751,-52.794 101.817,-67.878 194.835,-181.008 262.713,-316.7642 l 52.795,-108.1021 h 61.593 c 46.509,0 80.448,-10.056 134.499,-40.2241 62.85,-33.939 76.677,-49.023 110.616,-118.158 79.191,-159.6392 80.448,-409.7824 3.771,-592.0475 -30.168,-71.6491 -46.509,-91.7611 -96.789,-125.7001 -51.537,-35.196 -72.906,-41.481 -133.242,-41.481 h -72.906 l -55.309,-110.6161 c -67.878,-135.7562 -160.896,-248.8862 -265.227,-323.0493 -76.677,-55.3081 -81.705,-56.5651 -173.466,-56.5651 -125.7,0 -209.92,31.4251 -316.765,119.4151 l -84.2187,69.1351 -82.963,-69.1351 c -98.046,-81.705 -199.863,-119.4151 -321.792,-119.4151 -67.878,0 -85.476,5.0281 -145.812,45.2521 -129.471,85.4761 -247.629,213.6902 -309.222,335.6193 l -55.308,109.3591 h -70.392 c -60.336,0 -77.934,6.285 -119.415,38.967 -27.654,21.369 -71.649,77.9341 -99.303,125.7001 -65.364,110.6161 -86.733,242.6012 -65.364,406.0113 12.57,93.0181 21.369,116.9011 67.878,188.5502 71.649,106.845 145.812,158.3821 230.031,158.3821 h 62.85 l 59.079,116.9011 c 65.364,128.2142 142.041,212.4332 275.283,304.1942 75.42,51.537 85.476,55.308 167.181,55.308 52.794,1.257 121.929,-8.799 175.98,-25.14 z"
       id="path1-2-3-2-5-2-0"
       style="fill:#000000;stroke:none;stroke-width:0;stroke-dasharray:none" /><path
       d="m 2890.992,6827.6456 c -128.214,-81.705 -225.003,-187.2931 -287.853,-312.9932 l -51.537,-103.0741 h -60.336 c -81.705,0 -162.153,-56.565 -237.573,-170.9521 -52.794,-77.9341 -59.079,-94.2751 -70.392,-197.3492 -20.112,-175.9801 1.257,-305.4512 67.878,-423.6093 72.906,-128.2141 135.756,-175.9802 231.288,-175.9802 h 70.392 l 47.766,-103.0741 c 40.224,-87.99 65.364,-120.6721 153.354,-204.8911 57.822,-56.5651 135.756,-120.6721 170.952,-143.2981 65.364,-40.2241 69.135,-41.4811 169.695,-35.1961 201.1199,13.827 225.0029,22.626 326.8199,119.4151 l 59.0801,56.5651 70.392,-60.3361 c 101.817,-86.733 188.551,-118.1581 320.536,-119.4151 105.5877,0 108.1017,1.257 189.8067,55.3081 109.359,72.906 197.349,177.2371 267.741,319.2782 l 57.823,115.6441 h 70.392 c 56.5655,0 82.9615,7.542 137.0135,40.2241 60.335,35.196 70.392,47.766 105.588,134.4991 82.961,201.1201 81.705,457.5483 -3.772,625.9865 -37.709,76.677 -50.28,89.247 -118.157,126.9571 -56.566,30.168 -90.505,40.224 -137.0135,40.224 h -62.85 l -45.253,98.0461 c -56.565,124.4431 -168.438,260.1992 -268.998,326.8203 -76.677,51.537 -81.705,52.794 -186.036,52.794 -137.0127,0 -226.2607,-31.425 -324.3067,-116.9011 l -72.906,-62.85 -65.3651,64.107 c -55.308,54.051 -79.191,67.8781 -159.639,89.2471 -54.051,15.084 -130.7279,26.397 -182.2649,26.397 -84.219,0 -93.018,-3.771 -182.265,-61.5931 z m 356.9879,10.0561 c 75.42,-21.3691 100.56,-37.7101 159.639,-95.5321 l 70.3931,-67.8781 84.219,70.3921 c 108.102,91.7611 178.495,119.4151 309.223,119.4151 96.7887,0 103.0737,-1.257 179.7507,-52.7941 101.817,-67.878 194.835,-181.0081 262.713,-316.7642 l 52.795,-108.1021 h 61.593 c 46.5085,0 80.4475,-10.056 134.4985,-40.2241 62.85,-33.939 76.677,-49.023 110.616,-118.158 79.192,-159.6392 80.448,-409.7824 3.772,-592.0475 -30.168,-71.6491 -46.509,-91.7611 -96.79,-125.7001 -51.537,-35.196 -72.906,-41.481 -133.2415,-41.481 h -72.906 l -55.309,-110.6161 c -67.878,-135.7562 -160.896,-248.8862 -265.227,-323.0493 -76.677,-55.3081 -81.705,-56.5651 -173.466,-56.5651 -125.6997,0 -209.9197,31.4251 -316.7647,119.4151 l -84.219,69.1351 -82.9631,-69.1351 c -98.046,-81.705 -199.863,-119.4151 -321.7919,-119.4151 -67.878,0 -85.476,5.0281 -145.812,45.2521 -129.471,85.4761 -247.629,213.6902 -309.222,335.6193 l -55.308,109.3591 h -70.392 c -60.336,0 -77.934,6.285 -119.415,38.967 -27.654,21.369 -71.649,77.9341 -99.303,125.7001 -65.364,110.6161 -86.733,242.6012 -65.364,406.0113 12.57,93.0181 21.369,116.9011 67.878,188.5502 71.649,106.845 145.812,158.3821 230.031,158.3821 h 62.85 l 59.079,116.9011 c 65.364,128.2141 142.041,212.4332 275.283,304.1942 75.42,51.5371 85.476,55.3081 167.181,55.3081 52.794,1.257 121.9289,-8.799 175.9799,-25.14 z"
       id="path1-2-3-2-5-2-0-4"
       style="fill:#000000;stroke:none;stroke-width:0;stroke-dasharray:none" /><circle
       style="fill:none;stroke:#000000;stroke-width:22.5;stroke-linecap:square;stroke-miterlimit:0;stroke-dasharray:none"
       id="path81"
       cx="6306.3145"
       cy="-5921.3477"
       r="562.24725"
       transform="scale(1,-1)" /><text
       xml:space="preserve"
       style="font-size:320px;line-height:1.25;font-family:'Latin Modern Math';-inkscape-font-specification:'Latin Modern Math';stroke-width:7.5"
       x="6083.7129"
       y="-5812.0679"
       id="text82"
       transform="scale(1,-1)"><tspan
         sodipodi:role="line"
         id="tspan82"
         style="font-size:320px;stroke-width:7.5"
         x="6083.7129"
         y="-5812.0679">M1</tspan></text><circle
       style="fill:none;stroke:#000000;stroke-width:22.5;stroke-linecap:square;stroke-miterlimit:0;stroke-dasharray:none"
       id="path81-3"
       cx="13882.286"
       cy="-5921.3477"
       r="562.24725"
       transform="scale(1,-1)" /><text
       xml:space="preserve"
       style="font-size:320px;line-height:1.25;font-family:'Latin Modern Math';-inkscape-font-specification:'Latin Modern Math';stroke-width:7.5"
       x="13659.685"
       y="-5812.0679"
       id="text82-3"
       transform="scale(1,-1)"><tspan
         sodipodi:role="line"
         id="tspan82-7"
         style="font-size:320px;stroke-width:7.5"
         x="13659.685"
         y="-5812.0679">M3</tspan></text><circle
       style="fill:none;stroke:#000000;stroke-width:22.5;stroke-linecap:square;stroke-miterlimit:0;stroke-dasharray:none"
       id="path81-3-5"
       cx="10851.189"
       cy="-3388.405"
       r="562.24725"
       transform="scale(1,-1)" /><text
       xml:space="preserve"
       style="font-size:320px;line-height:1.25;font-family:'Latin Modern Math';-inkscape-font-specification:'Latin Modern Math';stroke-width:7.5"
       x="10628.587"
       y="-3279.1252"
       id="text82-3-6"
       transform="scale(1,-1)"><tspan
         sodipodi:role="line"
         id="tspan82-7-8"
         style="font-size:320px;stroke-width:7.5"
         x="10628.587"
         y="-3279.1252">M7</tspan></text><path
       style="fill:none;stroke:#000000;stroke-width:22.5;stroke-linecap:butt;stroke-linejoin:miter;stroke-dasharray:none;stroke-opacity:1"
       d="m 11311.733,3710.9286 c 740.686,589.734 1481.372,1179.4679 2222.057,1769.2014"
       id="path86"
       inkscape:path-effect="#path-effect86"
       inkscape:original-d="m 11311.733,3710.9286 c 740.686,589.7338 1481.372,1179.4676 2222.057,1769.2014" /><path
       style="fill:none;stroke:#000000;stroke-width:22.5;stroke-linecap:butt;stroke-linejoin:miter;stroke-dasharray:none;stroke-opacity:1"
       d="m 10851.19,2826.1578 c 3.555,-377.8544 7.109,-755.7088 10.664,-1133.5632"
       id="path87"
       inkscape:path-effect="#path-effect87"
       inkscape:original-d="m 10851.19,2826.1578 c 3.554,-377.8544 7.109,-755.7088 10.664,-1133.5632" /><path
       style="fill:none;stroke:#000000;stroke-width:22.5;stroke-linecap:butt;stroke-linejoin:miter;stroke-dasharray:none;stroke-opacity:1;marker-start:url(#ConcaveTriangle)"
       d="m 11552.037,3583.9798 783.071,-438.8433"
       id="path88" /><path
       style="fill:none;stroke:#000000;stroke-width:22.5;stroke-linecap:butt;stroke-linejoin:miter;stroke-dasharray:none;stroke-opacity:1;marker-start:url(#ConcaveTriangle-4)"
       d="m 13289.836,5410.1886 -864.024,-243.4057"
       id="path88-0" /><path
       style="fill:none;stroke:#000000;stroke-width:22.5;stroke-linecap:butt;stroke-linejoin:miter;stroke-dasharray:none;stroke-opacity:1;marker-start:url(#ConcaveTriangle-4-8)"
       d="m 13117.065,6123.6195 -642.807,626.5639"
       id="path88-0-7" /><path
       style="fill:none;stroke:#000000;stroke-width:22.5;stroke-linecap:butt;stroke-linejoin:miter;stroke-dasharray:none;stroke-opacity:1;marker-start:url(#ConcaveTriangle-4-8-9)"
       d="m 7141.4404,6014.2942 864.0237,243.4052"
       id="path88-0-7-3" /><text
       xml:space="preserve"
       style="font-size:220px;line-height:1.25;font-family:'Latin Modern Math';-inkscape-font-specification:'Latin Modern Math';stroke-width:7.5"
       x="12637.526"
       y="-2969.3198"
       id="text88"
       transform="scale(1,-1)"><tspan
         sodipodi:role="line"
         id="tspan88"
         style="stroke-width:7.5"
         x="12637.526"
         y="-2969.3198" /></text><text
       xml:space="preserve"
       style="font-size:320px;line-height:1.25;font-family:'Latin Modern Math';-inkscape-font-specification:'Latin Modern Math';stroke-width:7.5"
       x="12460.561"
       y="-3025.3225"
       id="text89"
       transform="scale(1,-1)"><tspan
         sodipodi:role="line"
         id="tspan89"
         style="stroke-width:7.5"
         x="12460.561"
         y="-3025.3225">9.10.0.254/16</tspan></text><text
       xml:space="preserve"
       style="font-size:320px;line-height:1.25;font-family:'Latin Modern Math';-inkscape-font-specification:'Latin Modern Math';stroke-width:7.5"
       x="10476.409"
       y="-5050.5537"
       id="text89-8"
       transform="scale(1,-1)"><tspan
         sodipodi:role="line"
         id="tspan89-4"
         style="stroke-width:7.5"
         x="10476.409"
         y="-5050.5537">9.10.0.253/16</tspan></text><text
       xml:space="preserve"
       style="font-size:320px;line-height:1.25;font-family:'Latin Modern Math';-inkscape-font-specification:'Latin Modern Math';stroke-width:7.5"
       x="10674.767"
       y="-6662.5781"
       id="text89-8-5"
       transform="scale(1,-1)"><tspan
         sodipodi:role="line"
         id="tspan89-4-5"
         style="stroke-width:7.5"
         x="10674.767"
         y="-6662.5781">9.2.0.253/16</tspan></text><text
       xml:space="preserve"
       style="font-size:320px;line-height:1.25;font-family:'Latin Modern Math';-inkscape-font-specification:'Latin Modern Math';stroke-width:7.5"
       x="8093.7861"
       y="-6197.0298"
       id="text89-8-5-8"
       transform="scale(1,-1)"><tspan
         sodipodi:role="line"
         id="tspan89-4-5-8"
         style="stroke-width:7.5"
         x="8093.7861"
         y="-6197.0298">9.2.0.254/16</tspan></text><path
       style="fill:none;stroke:#000000;stroke-width:22.5;stroke-linecap:butt;stroke-linejoin:miter;stroke-dasharray:none;stroke-opacity:1"
       d="M 6868.5617,5921.3477 H 13320.039"
       id="path89" /><path
       style="fill:none;stroke:#000000;stroke-width:22.5;stroke-linecap:butt;stroke-linejoin:miter;stroke-dasharray:none;stroke-opacity:1"
       d="m 5744.0672,5921.3477 -982.9567,2e-4"
       id="path90" /><path
       style="fill:none;stroke:#000000;stroke-width:22.5;stroke-linecap:butt;stroke-linejoin:miter;stroke-dasharray:none;stroke-opacity:1"
       d="m 6299.0862,8558.7007 7.2283,-2075.1058"
       id="path91" /><path
       style="fill:none;stroke:#000000;stroke-width:22.5;stroke-linecap:butt;stroke-linejoin:miter;stroke-dasharray:none;stroke-opacity:1"
       d="m 10852.908,2826.2244 7.228,-2075.10576"
       id="path91-3" /><text
       xml:space="preserve"
       style="font-size:320px;line-height:1.25;font-family:'Latin Modern Math';-inkscape-font-specification:'Latin Modern Math';stroke-width:7.5"
       x="6208.5527"
       y="-9209.8613"
       id="text91"
       transform="scale(1,-1)"><tspan
         sodipodi:role="line"
         id="tspan91"
         style="stroke-width:7.5"
         x="6208.5527"
         y="-9209.8613">3</tspan></text><text
       xml:space="preserve"
       style="font-size:320px;line-height:1.25;font-family:'Latin Modern Math';-inkscape-font-specification:'Latin Modern Math';stroke-width:7.5"
       x="16615.703"
       y="-5814.7881"
       id="text92"
       transform="scale(1,-1)"><tspan
         sodipodi:role="line"
         id="tspan92"
         style="stroke-width:7.5"
         x="16615.703"
         y="-5814.7881">5</tspan></text><text
       xml:space="preserve"
       style="font-size:320px;line-height:1.25;font-family:'Latin Modern Math';-inkscape-font-specification:'Latin Modern Math';stroke-width:7.5"
       x="10768.345"
       y="140.06104"
       id="text93"
       transform="scale(1,-1)"><tspan
         sodipodi:role="line"
         id="tspan93"
         style="stroke-width:7.5"
         x="10768.345"
         y="140.06104">6</tspan></text><path
       style="fill:none;stroke:#000000;stroke-width:22.5;stroke-linecap:butt;stroke-linejoin:miter;stroke-dasharray:none;stroke-opacity:1"
       d="m 14444.534,5921.3476 h 958.473"
       id="path93" /></g></svg>
