<?xml version="1.0" encoding="UTF-8" standalone="no"?>
<svg
   version="1.0"
   width="2475.9331"
   height="1502.5253"
   viewBox="0 0 1856.9499 1126.8939"
   preserveAspectRatio="xMidYMid"
   id="svg65"
   sodipodi:docname="network-scheme-2.svg"
   xml:space="preserve"
   inkscape:version="1.3 (0e150ed, 2023-07-21)"
   inkscape:export-filename="network-scheme-2.png"
   inkscape:export-xdpi="300"
   inkscape:export-ydpi="300"
   xmlns:inkscape="http://www.inkscape.org/namespaces/inkscape"
   xmlns:sodipodi="http://sodipodi.sourceforge.net/DTD/sodipodi-0.dtd"
   xmlns="http://www.w3.org/2000/svg"
   xmlns:svg="http://www.w3.org/2000/svg"><defs
     id="defs65"><inkscape:path-effect
       effect="bspline"
       id="path-effect87"
       is_visible="true"
       lpeversion="1.3"
       weight="33.333333"
       steps="2"
       helper_size="0"
       apply_no_weight="true"
       apply_with_weight="true"
       only_selected="false"
       uniform="false" /><inkscape:path-effect
       effect="bspline"
       id="path-effect86"
       is_visible="true"
       lpeversion="1.3"
       weight="33.333333"
       steps="2"
       helper_size="0"
       apply_no_weight="true"
       apply_with_weight="true"
       only_selected="false"
       uniform="false" /><inkscape:path-effect
       effect="bspline"
       id="path-effect85"
       is_visible="true"
       lpeversion="1.3"
       weight="33.333333"
       steps="2"
       helper_size="0"
       apply_no_weight="true"
       apply_with_weight="true"
       only_selected="false"
       uniform="false" /><inkscape:path-effect
       effect="bspline"
       id="path-effect84"
       is_visible="true"
       lpeversion="1.3"
       weight="33.333333"
       steps="2"
       helper_size="0"
       apply_no_weight="true"
       apply_with_weight="true"
       only_selected="false"
       uniform="false" /><inkscape:path-effect
       effect="bspline"
       id="path-effect83"
       is_visible="true"
       lpeversion="1.3"
       weight="33.333333"
       steps="2"
       helper_size="0"
       apply_no_weight="true"
       apply_with_weight="true"
       only_selected="false"
       uniform="false" /><inkscape:path-effect
       effect="bspline"
       id="path-effect82"
       is_visible="true"
       lpeversion="1.3"
       weight="33.333333"
       steps="2"
       helper_size="0"
       apply_no_weight="true"
       apply_with_weight="true"
       only_selected="false"
       uniform="false" /></defs><sodipodi:namedview
     id="namedview65"
     pagecolor="#ffffff"
     bordercolor="#666666"
     borderopacity="1.0"
     inkscape:showpageshadow="2"
     inkscape:pageopacity="0.0"
     inkscape:pagecheckerboard="0"
     inkscape:deskcolor="#d1d1d1"
     inkscape:document-units="pt"
     inkscape:zoom="0.78588553"
     inkscape:cx="1252.0907"
     inkscape:cy="1075.2202"
     inkscape:window-width="1920"
     inkscape:window-height="1052"
     inkscape:window-x="0"
     inkscape:window-y="28"
     inkscape:window-maximized="0"
     inkscape:current-layer="g65" /><g
     transform="matrix(0.1,0,0,-0.1,53.885574,1029.0503)"
     fill="#000000"
     stroke="none"
     id="g65"><text
       xml:space="preserve"
       style="font-size:720px;line-height:1.25;font-family:'Latin Modern Math';-inkscape-font-specification:'Latin Modern Math';stroke-width:7.5"
       x="4858.3931"
       y="-7132.3418"
       id="text78"
       transform="scale(1,-1)"><tspan
         sodipodi:role="line"
         id="tspan78"
         style="stroke-width:7.5"
         x="4858.3931"
         y="-7132.3418" /></text><text
       xml:space="preserve"
       style="font-size:320px;line-height:1.25;font-family:'Latin Modern Math';-inkscape-font-specification:'Latin Modern Math';text-align:center;text-anchor:middle;stroke-width:7.5"
       x="3468.5752"
       y="-5921.3481"
       id="text80"
       transform="scale(1,-1)"><tspan
         sodipodi:role="line"
         id="tspan80"
         style="font-size:320px;text-align:center;text-anchor:middle;stroke-width:7.5"
         x="3468.5752"
         y="-5921.3481">Internet</tspan><tspan
         sodipodi:role="line"
         style="font-size:320px;text-align:center;text-anchor:middle;stroke-width:7.5"
         x="3468.5752"
         y="-5521.3481"
         id="tspan81">1</tspan></text><path
       d="m 10272.32,895.7526 c -128.214,-81.705 -225.003,-187.2931 -287.853,-312.9932 L 9932.93,479.6853 h -60.336 c -81.705,0 -162.1533,-56.565 -237.5734,-170.9521 -52.794,-77.9341 -59.079,-94.2751 -70.392,-197.3492 -20.112,-175.9801 1.257,-305.4512 67.878,-423.6093 72.9061,-128.2141 135.7564,-175.9802 231.2884,-175.9802 h 70.392 l 47.766,-103.074 c 40.224,-87.9901 65.364,-120.6721 153.354,-204.8912 57.822,-56.5651 135.756,-120.6721 170.952,-143.2981 65.364,-40.2241 69.135,-41.4811 169.695,-35.1961 201.12,13.827 225.003,22.6261 326.82,119.4151 l 59.08,56.5651 70.392,-60.3361 c 101.817,-86.733 188.551,-118.1581 320.536,-119.4151 105.588,0 108.102,1.257 189.807,55.3081 109.359,72.906 197.349,177.2371 267.741,319.2782 l 57.823,115.6441 h 70.392 c 56.565,0 82.962,7.542 137.013,40.2241 60.336,35.196 70.392,47.766 105.588,134.4991 82.962,201.1201 81.705,457.5483 -3.771,625.9865 -37.71,76.677 -50.28,89.247 -118.158,126.9571 -56.565,30.168 -90.504,40.224 -137.013,40.224 h -62.85 l -45.253,98.0461 c -56.565,124.4431 -168.438,260.1992 -268.998,326.8203 -76.677,51.537 -81.705,52.794 -186.036,52.794 -137.013,0 -226.261,-31.425 -324.307,-116.9011 l -72.906,-62.85 -65.365,64.107 c -55.308,54.051 -79.191,67.8781 -159.639,89.2471 -54.051,15.084 -130.728,26.397 -182.265,26.397 -84.219,0 -93.018,-3.771 -182.265,-61.5931 z m 356.988,10.0561 c 75.42,-21.3691 100.56,-37.7101 159.639,-95.5321 l 70.393,-67.8781 84.219,70.3921 c 108.102,91.7611 178.495,119.4151 309.223,119.4151 96.789,0 103.074,-1.257 179.751,-52.7941 101.817,-67.878 194.835,-181.0081 262.713,-316.7642 l 52.795,-108.1021 h 61.593 c 46.509,0 80.448,-10.056 134.499,-40.2241 62.85,-33.939 76.677,-49.023 110.616,-118.158 79.191,-159.6392 80.448,-409.7824 3.771,-592.0475 -30.168,-71.6491 -46.509,-91.7611 -96.789,-125.7001 -51.537,-35.196 -72.906,-41.481 -133.242,-41.481 h -72.906 l -55.309,-110.6161 c -67.878,-135.7561 -160.896,-248.8862 -265.227,-323.0493 -76.677,-55.308 -81.705,-56.565 -173.466,-56.565 -125.7,0 -209.92,31.425 -316.765,119.4151 l -84.219,69.135 -82.963,-69.135 c -98.046,-81.7051 -199.863,-119.4151 -321.792,-119.4151 -67.878,0 -85.476,5.028 -145.812,45.252 -129.471,85.4761 -247.629,213.6902 -309.222,335.6193 l -55.308,109.3591 h -70.392 c -60.336,0 -77.934,6.285 -119.415,38.967 -27.6543,21.369 -71.6493,77.9341 -99.3034,125.7001 -65.364,110.6161 -86.733,242.6012 -65.364,406.0113 12.57,93.0181 21.369,116.9011 67.8781,188.5502 71.649,106.845 145.8123,158.3821 230.0313,158.3821 h 62.85 l 59.079,116.9011 c 65.364,128.2141 142.041,212.4332 275.283,304.1942 75.42,51.5371 85.476,55.3081 167.181,55.3081 52.794,1.257 121.929,-8.799 175.98,-25.14 z"
       id="path1-2-3-2-5"
       style="fill:#000000;stroke:none;stroke-width:0;stroke-dasharray:none" /><path
       d="m 16117.959,8099.397 c -128.214,-81.705 -225.003,-187.2931 -287.853,-312.9932 l -51.537,-103.0741 h -60.336 c -81.705,0 -162.153,-56.565 -237.573,-170.9521 -52.794,-77.9341 -59.079,-94.2751 -70.392,-197.3492 -20.112,-175.9801 1.257,-305.4512 67.878,-423.6093 72.906,-128.2141 135.756,-175.9802 231.288,-175.9802 h 70.392 l 47.766,-103.0741 c 40.224,-87.99 65.364,-120.6721 153.354,-204.8911 57.822,-56.5651 135.756,-120.6721 170.952,-143.2981 65.364,-40.2241 69.135,-41.4811 169.695,-35.1961 201.12,13.827 225.003,22.626 326.82,119.4151 l 59.08,56.5651 70.392,-60.3361 c 101.817,-86.733 188.551,-118.1581 320.536,-119.4151 105.588,0 108.102,1.257 189.807,55.3081 109.359,72.906 197.349,177.2371 267.741,319.2782 l 57.823,115.6441 h 70.392 c 56.565,0 82.962,7.542 137.013,40.2241 60.336,35.196 70.392,47.766 105.588,134.4991 82.962,201.1201 81.705,457.5483 -3.771,625.9865 -37.71,76.677 -50.28,89.247 -118.158,126.9571 -56.565,30.168 -90.504,40.224 -137.013,40.224 h -62.85 l -45.253,98.0461 c -56.565,124.4431 -168.438,260.1992 -268.998,326.8203 -76.677,51.537 -81.705,52.794 -186.036,52.794 -137.013,0 -226.261,-31.425 -324.307,-116.9011 l -72.906,-62.85 -65.365,64.107 c -55.308,54.051 -79.191,67.8781 -159.639,89.2471 -54.051,15.084 -130.728,26.397 -182.265,26.397 -84.219,0 -93.018,-3.771 -182.265,-61.5931 z m 356.988,10.0561 c 75.42,-21.3691 100.56,-37.7101 159.639,-95.5321 l 70.393,-67.8781 84.219,70.3921 c 108.102,91.7611 178.495,119.4151 309.223,119.4151 96.789,0 103.074,-1.257 179.751,-52.7941 101.817,-67.878 194.835,-181.0081 262.713,-316.7642 l 52.795,-108.1021 h 61.593 c 46.509,0 80.448,-10.056 134.499,-40.2241 62.85,-33.939 76.677,-49.023 110.616,-118.158 79.191,-159.6392 80.448,-409.7824 3.771,-592.0475 -30.168,-71.6491 -46.509,-91.7611 -96.789,-125.7001 -51.537,-35.196 -72.906,-41.481 -133.242,-41.481 h -72.906 l -55.309,-110.6161 c -67.878,-135.7562 -160.896,-248.8862 -265.227,-323.0493 -76.677,-55.3081 -81.705,-56.5651 -173.466,-56.5651 -125.7,0 -209.92,31.4251 -316.765,119.4151 l -84.219,69.1351 -82.963,-69.1351 c -98.046,-81.705 -199.863,-119.4151 -321.792,-119.4151 -67.878,0 -85.476,5.0281 -145.812,45.2521 -129.471,85.4761 -247.629,213.6902 -309.222,335.6193 l -55.308,109.3591 h -70.392 c -60.336,0 -77.934,6.285 -119.415,38.967 -27.654,21.369 -71.649,77.9341 -99.303,125.7001 -65.364,110.6161 -86.733,242.6012 -65.364,406.0113 12.57,93.0181 21.369,116.9011 67.878,188.5502 71.649,106.845 145.812,158.3821 230.031,158.3821 h 62.85 l 59.079,116.9011 c 65.364,128.2141 142.041,212.4332 275.283,304.1942 75.42,51.5371 85.476,55.3081 167.181,55.3081 52.794,1.257 121.929,-8.799 175.98,-25.14 z"
       id="path1-2-3-2-5-2-3"
       style="fill:#000000;stroke:none;stroke-width:0;stroke-dasharray:none" /><path
       d="m 16160.525,5628.4994 c -128.214,-81.7049 -225.003,-187.293 -287.853,-312.9931 l -51.537,-103.0741 h -60.336 c -81.705,0 -162.153,-56.565 -237.573,-170.9522 -52.794,-77.9341 -59.079,-94.2751 -70.392,-197.3491 -20.112,-175.9801 1.257,-305.4512 67.878,-423.6093 72.906,-128.2142 135.756,-175.9802 231.288,-175.9802 h 70.392 l 47.766,-103.0741 c 40.224,-87.99 65.364,-120.6721 153.354,-204.8911 57.822,-56.5651 135.756,-120.6721 170.952,-143.2981 65.364,-40.2241 69.135,-41.4811 169.695,-35.1961 201.12,13.827 225.003,22.626 326.82,119.4151 l 59.08,56.5651 70.392,-60.3362 c 101.817,-86.733 188.551,-118.158 320.536,-119.4151 105.588,0 108.102,1.257 189.807,55.3081 109.359,72.906 197.349,177.2372 267.741,319.2782 l 57.823,115.6442 h 70.392 c 56.565,0 82.962,7.542 137.013,40.2241 60.336,35.196 70.392,47.766 105.588,134.4991 82.962,201.1201 81.705,457.5483 -3.771,625.9865 -37.71,76.677 -50.28,89.247 -118.158,126.9571 -56.565,30.1679 -90.504,40.224 -137.013,40.224 h -62.85 l -45.253,98.046 c -56.565,124.4432 -168.438,260.1992 -268.998,326.8204 -76.677,51.537 -81.705,52.794 -186.036,52.794 -137.013,0 -226.261,-31.425 -324.307,-116.9012 l -72.906,-62.85 -65.365,64.107 c -55.308,54.051 -79.191,67.8782 -159.639,89.2471 -54.051,15.084 -130.728,26.3971 -182.265,26.3971 -84.219,0 -93.018,-3.7711 -182.265,-61.5932 z m 356.988,10.0561 c 75.42,-21.3691 100.56,-37.7101 159.639,-95.5321 l 70.393,-67.8781 84.219,70.3921 c 108.102,91.7612 178.495,119.4151 309.223,119.4151 96.789,0 103.074,-1.257 179.751,-52.7941 101.817,-67.878 194.835,-181.0081 262.713,-316.7642 l 52.795,-108.1021 h 61.593 c 46.509,0 80.448,-10.056 134.499,-40.2241 62.85,-33.939 76.677,-49.023 110.616,-118.158 79.191,-159.6392 80.448,-409.7824 3.771,-592.0475 -30.168,-71.6491 -46.509,-91.7611 -96.789,-125.7001 -51.537,-35.196 -72.906,-41.481 -133.242,-41.481 h -72.906 l -55.309,-110.6161 c -67.878,-135.7562 -160.896,-248.8862 -265.227,-323.0493 -76.677,-55.3081 -81.705,-56.5651 -173.466,-56.5651 -125.7,0 -209.92,31.4251 -316.765,119.4151 l -84.219,69.1351 -82.963,-69.1351 c -98.046,-81.705 -199.863,-119.4151 -321.792,-119.4151 -67.878,0 -85.476,5.0281 -145.812,45.2521 -129.471,85.4761 -247.629,213.6902 -309.222,335.6193 l -55.308,109.3591 h -70.392 c -60.336,0 -77.934,6.285 -119.415,38.967 -27.654,21.369 -71.649,77.9341 -99.303,125.7001 -65.364,110.6161 -86.733,242.6012 -65.364,406.0113 12.57,93.0181 21.369,116.9011 67.878,188.5502 71.649,106.845 145.812,158.3821 230.031,158.3821 h 62.85 l 59.079,116.9011 c 65.364,128.2141 142.041,212.4332 275.283,304.1942 75.42,51.5371 85.476,55.3081 167.181,55.3081 52.794,1.257 121.929,-8.799 175.98,-25.14 z"
       id="path1-2-3-2-5-2-3-1"
       style="fill:#000000;stroke:none;stroke-width:0;stroke-dasharray:none" /><path
       d="m 2890.992,6827.6456 c -128.214,-81.705 -225.003,-187.2931 -287.853,-312.9932 l -51.537,-103.0741 h -60.336 c -81.705,0 -162.153,-56.565 -237.573,-170.9521 -52.794,-77.9341 -59.079,-94.2751 -70.392,-197.3492 -20.112,-175.9801 1.257,-305.4512 67.878,-423.6093 72.906,-128.2141 135.756,-175.9802 231.288,-175.9802 h 70.392 l 47.766,-103.0741 c 40.224,-87.99 65.364,-120.6721 153.354,-204.8911 57.822,-56.5651 135.756,-120.6721 170.952,-143.2981 65.364,-40.2241 69.135,-41.4811 169.695,-35.1961 201.1199,13.827 225.0029,22.626 326.8199,119.4151 l 59.0801,56.5651 70.392,-60.3361 c 101.817,-86.733 188.551,-118.1581 320.536,-119.4151 105.5877,0 108.1017,1.257 189.8067,55.3081 109.359,72.906 197.349,177.2371 267.741,319.2782 l 57.823,115.6441 h 70.392 c 56.5655,0 82.9615,7.542 137.0135,40.2241 60.335,35.196 70.392,47.766 105.588,134.4991 82.961,201.1201 81.705,457.5483 -3.772,625.9865 -37.709,76.677 -50.28,89.247 -118.157,126.9571 -56.566,30.168 -90.505,40.224 -137.0135,40.224 h -62.85 l -45.253,98.0461 c -56.565,124.4431 -168.438,260.1992 -268.998,326.8203 -76.677,51.537 -81.705,52.794 -186.036,52.794 -137.0127,0 -226.2607,-31.425 -324.3067,-116.9011 l -72.906,-62.85 -65.3651,64.107 c -55.308,54.051 -79.191,67.8781 -159.639,89.2471 -54.051,15.084 -130.7279,26.397 -182.2649,26.397 -84.219,0 -93.018,-3.771 -182.265,-61.5931 z m 356.9879,10.0561 c 75.42,-21.3691 100.56,-37.7101 159.639,-95.5321 l 70.3931,-67.8781 84.219,70.3921 c 108.102,91.7611 178.495,119.4151 309.223,119.4151 96.7887,0 103.0737,-1.257 179.7507,-52.7941 101.817,-67.878 194.835,-181.0081 262.713,-316.7642 l 52.795,-108.1021 h 61.593 c 46.5085,0 80.4475,-10.056 134.4985,-40.2241 62.85,-33.939 76.677,-49.023 110.616,-118.158 79.192,-159.6392 80.448,-409.7824 3.772,-592.0475 -30.168,-71.6491 -46.509,-91.7611 -96.79,-125.7001 -51.537,-35.196 -72.906,-41.481 -133.2415,-41.481 h -72.906 l -55.309,-110.6161 c -67.878,-135.7562 -160.896,-248.8862 -265.227,-323.0493 -76.677,-55.3081 -81.705,-56.5651 -173.466,-56.5651 -125.6997,0 -209.9197,31.4251 -316.7647,119.4151 l -84.219,69.1351 -82.9631,-69.1351 c -98.046,-81.705 -199.863,-119.4151 -321.7919,-119.4151 -67.878,0 -85.476,5.0281 -145.812,45.2521 -129.471,85.4761 -247.629,213.6902 -309.222,335.6193 l -55.308,109.3591 h -70.392 c -60.336,0 -77.934,6.285 -119.415,38.967 -27.654,21.369 -71.649,77.9341 -99.303,125.7001 -65.364,110.6161 -86.733,242.6012 -65.364,406.0113 12.57,93.0181 21.369,116.9011 67.878,188.5502 71.649,106.845 145.812,158.3821 230.031,158.3821 h 62.85 l 59.079,116.9011 c 65.364,128.2141 142.041,212.4332 275.283,304.1942 75.42,51.5371 85.476,55.3081 167.181,55.3081 52.794,1.257 121.9289,-8.799 175.9799,-25.14 z"
       id="path1-2-3-2-5-2-0-4"
       style="fill:#000000;stroke:none;stroke-width:0;stroke-dasharray:none" /><circle
       style="fill:none;stroke:#000000;stroke-width:22.5;stroke-linecap:square;stroke-miterlimit:0;stroke-dasharray:none"
       id="path81"
       cx="6306.3145"
       cy="-5921.3477"
       r="562.24725"
       transform="scale(1,-1)" /><text
       xml:space="preserve"
       style="font-size:320px;line-height:1.25;font-family:'Latin Modern Math';-inkscape-font-specification:'Latin Modern Math';stroke-width:7.5"
       x="6083.7129"
       y="-5812.0679"
       id="text82"
       transform="scale(1,-1)"><tspan
         sodipodi:role="line"
         id="tspan82"
         style="font-size:320px;stroke-width:7.5"
         x="6083.7129"
         y="-5812.0679">M1</tspan></text><circle
       style="fill:none;stroke:#000000;stroke-width:22.5;stroke-linecap:square;stroke-miterlimit:0;stroke-dasharray:none"
       id="path81-3"
       cx="13882.286"
       cy="-5921.3477"
       r="562.24725"
       transform="scale(1,-1)" /><text
       xml:space="preserve"
       style="font-size:320px;line-height:1.25;font-family:'Latin Modern Math';-inkscape-font-specification:'Latin Modern Math';stroke-width:7.5"
       x="13659.685"
       y="-5812.0679"
       id="text82-3"
       transform="scale(1,-1)"><tspan
         sodipodi:role="line"
         id="tspan82-7"
         style="font-size:320px;stroke-width:7.5"
         x="13659.685"
         y="-5812.0679">M3</tspan></text><circle
       style="fill:none;stroke:#000000;stroke-width:22.5;stroke-linecap:square;stroke-miterlimit:0;stroke-dasharray:none"
       id="path81-3-5"
       cx="10851.189"
       cy="-3388.405"
       r="562.24725"
       transform="scale(1,-1)" /><text
       xml:space="preserve"
       style="font-size:320px;line-height:1.25;font-family:'Latin Modern Math';-inkscape-font-specification:'Latin Modern Math';stroke-width:7.5"
       x="10628.587"
       y="-3279.1252"
       id="text82-3-6"
       transform="scale(1,-1)"><tspan
         sodipodi:role="line"
         id="tspan82-7-8"
         style="font-size:320px;stroke-width:7.5"
         x="10628.587"
         y="-3279.1252">M7</tspan></text><path
       style="fill:none;stroke:#000000;stroke-width:22.5;stroke-linecap:butt;stroke-linejoin:miter;stroke-dasharray:none;stroke-opacity:1"
       d="m 11311.733,3710.9286 c 740.686,589.734 1481.372,1179.4679 2222.057,1769.2014"
       id="path86"
       inkscape:path-effect="#path-effect86"
       inkscape:original-d="m 11311.733,3710.9286 c 740.686,589.7338 1481.372,1179.4676 2222.057,1769.2014" /><text
       xml:space="preserve"
       style="font-size:220px;line-height:1.25;font-family:'Latin Modern Math';-inkscape-font-specification:'Latin Modern Math';stroke-width:7.5"
       x="12637.526"
       y="-2969.3198"
       id="text88"
       transform="scale(1,-1)"><tspan
         sodipodi:role="line"
         id="tspan88"
         style="stroke-width:7.5"
         x="12637.526"
         y="-2969.3198" /></text><path
       style="fill:none;stroke:#000000;stroke-width:22.5;stroke-linecap:butt;stroke-linejoin:miter;stroke-dasharray:none;stroke-opacity:1"
       d="M 6868.5617,5921.3477 H 13320.039"
       id="path89" /><path
       style="fill:none;stroke:#000000;stroke-width:22.5;stroke-linecap:butt;stroke-linejoin:miter;stroke-dasharray:none;stroke-opacity:1"
       d="m 5744.0672,5921.3477 -982.9567,2e-4"
       id="path90" /><path
       style="fill:none;stroke:#000000;stroke-width:22.5;stroke-linecap:butt;stroke-linejoin:miter;stroke-dasharray:none;stroke-opacity:1"
       d="m 10855.212,2828.0347 7.229,-2075.10569"
       id="path91-1" /><path
       d="m 7520.2681,895.7524 c -128.214,-81.705 -225.003,-187.293 -287.853,-312.993 l -51.537,-103.074 h -60.336 c -81.7051,0 -162.1531,-56.565 -237.5731,-170.952 -52.7939,-77.9343 -59.0789,-94.2753 -70.3919,-197.3494 -20.112,-175.9801 1.257,-305.4512 67.8779,-423.6093 72.906,-128.2141 135.756,-175.9802 231.2881,-175.9802 h 70.392 l 47.766,-103.0741 c 40.224,-87.99 65.364,-120.6721 153.354,-204.8911 57.822,-56.5651 135.756,-120.6721 170.952,-143.2981 65.364,-40.2241 69.135,-41.4811 169.695,-35.1961 201.12,13.827 225.003,22.626 326.82,119.4151 l 59.08,56.5651 70.3924,-60.3361 c 101.817,-86.733 188.551,-118.1581 320.536,-119.4151 105.587,0 108.101,1.257 189.806,55.3081 109.359,72.906 197.349,177.2371 267.741,319.2782 l 57.823,115.6441 h 70.392 c 56.565,0 82.962,7.542 137.013,40.2241 60.336,35.196 70.392,47.766 105.588,134.4991 82.962,201.1201 81.705,457.5483 -3.771,625.9867 -37.71,76.677 -50.28,89.247 -118.158,126.957 -56.565,30.168 -90.504,40.224 -137.013,40.224 h -62.85 l -45.253,98.046 c -56.565,124.443 -168.438,260.199 -268.998,326.82 -76.677,51.537 -81.705,52.794 -186.036,52.794 -137.012,0 -226.26,-31.425 -324.306,-116.901 l -72.9064,-62.85 -65.365,64.107 c -55.308,54.051 -79.191,67.878 -159.639,89.247 -54.051,15.084 -130.728,26.397 -182.265,26.397 -84.219,0 -93.018,-3.771 -182.265,-61.593 z m 356.988,10.056 c 75.42,-21.369 100.56,-37.71 159.639,-95.532 l 70.393,-67.878 84.2194,70.392 c 108.102,91.761 178.495,119.415 309.223,119.415 96.788,0 103.073,-1.257 179.75,-52.794 101.817,-67.878 194.835,-181.008 262.713,-316.764 l 52.795,-108.102 h 61.593 c 46.509,0 80.448,-10.056 134.499,-40.224 62.85,-33.939 76.677,-49.023 110.616,-118.158 79.191,-159.6394 80.448,-409.7826 3.771,-592.0477 -30.168,-71.6491 -46.509,-91.7611 -96.789,-125.7001 -51.537,-35.196 -72.906,-41.481 -133.242,-41.481 h -72.906 l -55.309,-110.6161 c -67.878,-135.7562 -160.896,-248.8862 -265.227,-323.0493 -76.677,-55.3081 -81.705,-56.5651 -173.466,-56.5651 -125.699,0 -209.919,31.4251 -316.764,119.4151 l -84.2194,69.1351 -82.963,-69.1351 c -98.046,-81.705 -199.863,-119.4151 -321.792,-119.4151 -67.878,0 -85.476,5.0281 -145.812,45.2521 -129.471,85.4761 -247.629,213.6902 -309.222,335.6193 l -55.308,109.3591 h -70.392 c -60.336,0 -77.934,6.285 -119.4151,38.967 -27.654,21.369 -71.649,77.9341 -99.303,125.7001 -65.3639,110.6161 -86.7329,242.6012 -65.3639,406.0113 12.5699,93.0181 21.3689,116.9011 67.8779,188.5504 71.649,106.845 145.8121,158.382 230.0311,158.382 h 62.85 l 59.079,116.901 c 65.364,128.214 142.041,212.433 275.283,304.194 75.42,51.537 85.476,55.308 167.181,55.308 52.794,1.257 121.929,-8.799 175.98,-25.14 z"
       id="path1-2-3-2-5-2-0-2-3"
       style="fill:#000000;stroke:none;stroke-width:0;stroke-dasharray:none" /><path
       d="m 13068.912,911.2734 c -128.214,-81.705 -225.003,-187.293 -287.853,-312.993 l -51.537,-103.074 h -60.336 c -81.705,0 -162.153,-56.565 -237.573,-170.952 -52.794,-77.9339 -59.079,-94.2749 -70.392,-197.349 -20.112,-175.9801 1.257,-305.4512 67.878,-423.6093 72.906,-128.2141 135.756,-175.9802 231.288,-175.9802 h 70.392 l 47.766,-103.0741 c 40.224,-87.99 65.364,-120.6721 153.354,-204.8911 57.822,-56.5651 135.756,-120.6721 170.952,-143.2981 65.364,-40.2241 69.135,-41.4811 169.695,-35.1961 201.12,13.827 225.003,22.626 326.82,119.4151 l 59.08,56.5651 70.392,-60.3361 c 101.817,-86.733 188.551,-118.1581 320.536,-119.4151 105.588,0 108.102,1.257 189.807,55.3081 109.359,72.906 197.349,177.2371 267.741,319.2782 l 57.823,115.6441 h 70.392 c 56.565,0 82.962,7.542 137.013,40.2241 60.336,35.196 70.392,47.766 105.588,134.4991 82.962,201.1201 81.705,457.5483 -3.771,625.9863 -37.71,76.677 -50.28,89.247 -118.158,126.957 -56.565,30.168 -90.504,40.224 -137.013,40.224 h -62.85 l -45.253,98.046 c -56.565,124.443 -168.438,260.199 -268.998,326.82 -76.677,51.537 -81.705,52.794 -186.036,52.794 -137.013,0 -226.261,-31.425 -324.307,-116.901 l -72.906,-62.85 -65.365,64.107 c -55.308,54.051 -79.191,67.878 -159.639,89.247 -54.051,15.084 -130.728,26.397 -182.265,26.397 -84.219,0 -93.018,-3.771 -182.265,-61.593 z m 356.988,10.056 c 75.42,-21.369 100.56,-37.71 159.639,-95.532 l 70.393,-67.878 84.219,70.392 c 108.102,91.761 178.495,119.415 309.223,119.415 96.789,0 103.074,-1.257 179.751,-52.794 101.817,-67.878 194.835,-181.008 262.713,-316.764 l 52.795,-108.102 h 61.593 c 46.509,0 80.448,-10.056 134.499,-40.224 62.85,-33.939 76.677,-49.023 110.616,-118.158 79.191,-159.639 80.448,-409.7822 3.771,-592.0473 -30.168,-71.6491 -46.509,-91.7611 -96.789,-125.7001 -51.537,-35.196 -72.906,-41.481 -133.242,-41.481 h -72.906 l -55.309,-110.6161 c -67.878,-135.7562 -160.896,-248.8862 -265.227,-323.0493 -76.677,-55.3081 -81.705,-56.5651 -173.466,-56.5651 -125.7,0 -209.92,31.4251 -316.765,119.4151 l -84.219,69.1351 -82.963,-69.1351 c -98.046,-81.705 -199.863,-119.4151 -321.792,-119.4151 -67.878,0 -85.476,5.0281 -145.812,45.2521 -129.471,85.4761 -247.629,213.6902 -309.222,335.6193 l -55.308,109.3591 h -70.392 c -60.336,0 -77.934,6.285 -119.415,38.967 -27.654,21.369 -71.649,77.9341 -99.303,125.7001 -65.364,110.6161 -86.733,242.6012 -65.364,406.0113 12.57,93.0181 21.369,116.9011 67.878,188.55 71.649,106.845 145.812,158.382 230.031,158.382 h 62.85 l 59.079,116.901 c 65.364,128.214 142.041,212.433 275.283,304.194 75.42,51.537 85.476,55.308 167.181,55.308 52.794,1.257 121.929,-8.799 175.98,-25.14 z"
       id="path1-2-3-2-5-2-0-29-9"
       style="fill:#000000;stroke:none;stroke-width:0;stroke-dasharray:none" /><path
       d="m 15828.818,926.7954 c -128.214,-81.705 -225.003,-187.293 -287.853,-312.993 l -51.537,-103.074 h -60.336 c -81.705,0 -162.153,-56.565 -237.573,-170.952 -52.794,-77.9345 -59.079,-94.2755 -70.392,-197.3496 -20.112,-175.9801 1.257,-305.4512 67.878,-423.6093 72.906,-128.2141 135.756,-175.9802 231.288,-175.9802 h 70.392 l 47.766,-103.0741 c 40.224,-87.99 65.364,-120.6721 153.354,-204.8911 57.822,-56.5651 135.756,-120.6721 170.952,-143.2981 65.364,-40.2241 69.135,-41.4811 169.695,-35.1961 201.12,13.827 225.003,22.626 326.82,119.4151 l 59.08,56.5651 70.392,-60.3361 c 101.817,-86.733 188.551,-118.1581 320.536,-119.4151 105.588,0 108.102,1.257 189.807,55.3081 109.359,72.906 197.349,177.2371 267.741,319.2782 l 57.823,115.6441 h 70.392 c 56.565,0 82.962,7.542 137.013,40.2241 60.336,35.196 70.392,47.766 105.588,134.4991 82.962,201.1201 81.705,457.5483 -3.771,625.9869 -37.71,76.677 -50.28,89.247 -118.158,126.957 -56.565,30.168 -90.504,40.224 -137.013,40.224 h -62.85 l -45.253,98.046 c -56.565,124.443 -168.438,260.199 -268.998,326.82 -76.677,51.537 -81.705,52.794 -186.036,52.794 -137.013,0 -226.261,-31.425 -324.307,-116.901 l -72.906,-62.85 -65.365,64.107 c -55.308,54.051 -79.191,67.878 -159.639,89.247 -54.051,15.084 -130.728,26.397 -182.265,26.397 -84.219,0 -93.018,-3.771 -182.265,-61.593 z m 356.988,10.056 c 75.42,-21.369 100.56,-37.71 159.639,-95.532 l 70.393,-67.878 84.219,70.392 c 108.102,91.761 178.495,119.415 309.223,119.415 96.789,0 103.074,-1.257 179.751,-52.794 101.817,-67.878 194.835,-181.008 262.713,-316.764 l 52.795,-108.102 h 61.593 c 46.509,0 80.448,-10.056 134.499,-40.224 62.85,-33.939 76.677,-49.023 110.616,-118.158 79.191,-159.6395 80.448,-409.7827 3.771,-592.0478 -30.168,-71.6491 -46.509,-91.7611 -96.789,-125.7001 -51.537,-35.196 -72.906,-41.481 -133.242,-41.481 h -72.906 l -55.309,-110.6161 c -67.878,-135.7562 -160.896,-248.8862 -265.227,-323.0493 -76.677,-55.3081 -81.705,-56.5651 -173.466,-56.5651 -125.7,0 -209.92,31.4251 -316.765,119.4151 l -84.219,69.1351 -82.963,-69.1351 c -98.046,-81.705 -199.863,-119.4151 -321.792,-119.4151 -67.878,0 -85.476,5.0281 -145.812,45.2521 -129.471,85.4761 -247.629,213.6902 -309.222,335.6193 l -55.308,109.3591 h -70.392 c -60.336,0 -77.934,6.285 -119.415,38.967 -27.654,21.369 -71.649,77.9341 -99.303,125.7001 -65.364,110.6161 -86.733,242.60123 -65.364,406.0113 12.57,93.0181 21.369,116.901 67.878,188.5505 71.649,106.845 145.812,158.382 230.031,158.382 h 62.85 l 59.079,116.901 c 65.364,128.214 142.041,212.433 275.283,304.194 75.42,51.537 85.476,55.308 167.181,55.308 52.794,1.257 121.929,-8.799 175.98,-25.14 z"
       id="path1-2-3-2-5-2-0-29-1-0"
       style="fill:#000000;stroke:none;stroke-width:0;stroke-dasharray:none" /><path
       d="m 4731.5293,895.7524 c -128.214,-81.705 -225.003,-187.293 -287.853,-312.993 l -51.537,-103.074 h -60.336 c -81.705,0 -162.153,-56.565 -237.573,-170.952 -52.794,-77.9343 -59.079,-94.2753 -70.392,-197.3494 -20.112,-175.9801 1.257,-305.4512 67.878,-423.6093 72.906,-128.2141 135.756,-175.9802 231.288,-175.9802 h 70.392 l 47.766,-103.0741 c 40.224,-87.99 65.364,-120.6721 153.354,-204.8911 57.822,-56.5651 135.756,-120.6721 170.952,-143.2981 65.364,-40.2241 69.135,-41.4811 169.695,-35.1961 201.12,13.827 225.003,22.626 326.82,119.4151 l 59.08,56.5651 70.3924,-60.3361 c 101.817,-86.733 188.551,-118.1581 320.536,-119.4151 105.587,0 108.101,1.257 189.806,55.3081 109.359,72.906 197.349,177.2371 267.741,319.2782 l 57.823,115.6441 h 70.392 c 56.565,0 82.962,7.542 137.013,40.2241 60.336,35.196 70.392,47.766 105.588,134.4991 82.962,201.1201 81.705,457.5483 -3.771,625.9867 -37.71,76.677 -50.28,89.247 -118.158,126.957 -56.565,30.168 -90.504,40.224 -137.013,40.224 h -62.85 l -45.253,98.046 c -56.565,124.443 -168.438,260.199 -268.998,326.82 -76.677,51.537 -81.705,52.794 -186.036,52.794 -137.012,0 -226.26,-31.425 -324.306,-116.901 l -72.9064,-62.85 -65.365,64.107 c -55.308,54.051 -79.191,67.878 -159.639,89.247 -54.051,15.084 -130.728,26.397 -182.265,26.397 -84.219,0 -93.018,-3.771 -182.265,-61.593 z m 356.988,10.056 c 75.42,-21.369 100.56,-37.71 159.639,-95.532 l 70.393,-67.878 84.2194,70.392 c 108.102,91.761 178.495,119.415 309.223,119.415 96.788,0 103.073,-1.257 179.75,-52.794 101.817,-67.878 194.835,-181.008 262.713,-316.764 l 52.795,-108.102 h 61.593 c 46.509,0 80.448,-10.056 134.499,-40.224 62.85,-33.939 76.677,-49.023 110.616,-118.158 79.191,-159.6394 80.448,-409.7826 3.771,-592.0477 -30.168,-71.6491 -46.509,-91.7611 -96.789,-125.7001 -51.537,-35.196 -72.906,-41.481 -133.242,-41.481 h -72.906 l -55.309,-110.6161 c -67.878,-135.7562 -160.896,-248.8862 -265.227,-323.0493 -76.677,-55.3081 -81.705,-56.5651 -173.466,-56.5651 -125.699,0 -209.919,31.4251 -316.764,119.4151 l -84.2194,69.1351 -82.963,-69.1351 c -98.046,-81.705 -199.863,-119.4151 -321.792,-119.4151 -67.878,0 -85.476,5.0281 -145.812,45.2521 -129.471,85.4761 -247.629,213.6902 -309.222,335.6193 l -55.308,109.3591 h -70.392 c -60.336,0 -77.934,6.285 -119.415,38.967 -27.654,21.369 -71.649,77.9341 -99.303,125.7001 -65.364,110.6161 -86.733,242.6012 -65.364,406.0113 12.57,93.0181 21.369,116.9011 67.878,188.5504 71.649,106.845 145.812,158.382 230.031,158.382 h 62.85 l 59.079,116.901 c 65.364,128.214 142.041,212.433 275.283,304.194 75.42,51.537 85.476,55.308 167.181,55.308 52.794,1.257 121.929,-8.799 175.98,-25.14 z"
       id="path1-2-3-2-5-2-0-2-2-5"
       style="fill:#000000;stroke:none;stroke-width:0;stroke-dasharray:none" /><path
       style="fill:none;stroke:#000000;stroke-width:22.5;stroke-linecap:butt;stroke-linejoin:miter;stroke-dasharray:none;stroke-opacity:1"
       d="M 8680.4803,879.41125 10554.88,2910.5741"
       id="path1" /><path
       style="fill:none;stroke:#000000;stroke-width:22.5;stroke-linecap:butt;stroke-linejoin:miter;stroke-dasharray:none;stroke-opacity:1"
       d="M 5891.7417,879.41125 10326.36,3186.7232"
       id="path2" /><path
       style="fill:none;stroke:#000000;stroke-width:22.5;stroke-linecap:butt;stroke-linejoin:miter;stroke-dasharray:none;stroke-opacity:1"
       d="M 11409.686,3196.7032 15828.818,926.7955"
       id="path3" /><path
       style="fill:none;stroke:#000000;stroke-width:22.5;stroke-linecap:butt;stroke-linejoin:miter;stroke-dasharray:none;stroke-opacity:1"
       d="M 11202.933,2918.2036 13082.739,891.1615"
       id="path4" /><path
       d="m 5716.8866,8416.3146 c -128.214,81.705 -225.003,187.2931 -287.853,312.9932 l -51.537,103.0741 h -60.336 c -81.705,0 -162.1533,56.565 -237.5734,170.9521 -52.794,77.9341 -59.079,94.2751 -70.392,197.3492 -20.112,175.9801 1.257,305.4512 67.878,423.6093 72.9061,128.2141 135.7564,175.9802 231.2884,175.9802 h 70.392 l 47.766,103.074 c 40.224,87.9903 65.364,120.6723 153.354,204.8913 57.822,56.565 135.756,120.672 170.952,143.298 65.3638,40.224 69.1348,41.481 169.6948,35.196 201.12,-13.827 225.003,-22.626 326.82,-119.415 l 59.08,-56.565 70.392,60.336 c 101.817,86.733 188.551,118.158 320.536,119.415 105.588,0 108.102,-1.257 189.807,-55.308 109.359,-72.906 197.349,-177.237 267.741,-319.2782 l 57.823,-115.6441 h 70.392 c 56.565,0 82.9619,-7.542 137.0129,-40.2241 60.336,-35.196 70.392,-47.766 105.588,-134.4991 82.962,-201.1201 81.705,-457.5483 -3.771,-625.9865 -37.71,-76.677 -50.28,-89.247 -118.158,-126.9571 -56.5649,-30.168 -90.5039,-40.224 -137.0129,-40.224 h -62.85 l -45.253,-98.0461 c -56.565,-124.4431 -168.438,-260.1992 -268.998,-326.8203 -76.677,-51.537 -81.705,-52.794 -186.036,-52.794 -137.013,0 -226.261,31.425 -324.307,116.9011 l -72.906,62.85 -65.365,-64.107 c -55.308,-54.051 -79.191,-67.8781 -159.639,-89.2471 -54.051,-15.084 -130.728,-26.397 -182.265,-26.397 -84.219,0 -93.018,3.771 -182.2648,61.5931 z m 356.9878,-10.0561 c 75.42,21.3691 100.56,37.7101 159.639,95.5321 l 70.393,67.8781 84.219,-70.3921 c 108.102,-91.7611 178.495,-119.4151 309.223,-119.4151 96.789,0 103.074,1.257 179.751,52.7941 101.817,67.878 194.835,181.0081 262.713,316.7642 l 52.795,108.1021 h 61.593 c 46.509,0 80.448,10.056 134.4989,40.2241 62.85,33.939 76.677,49.023 110.616,118.158 79.191,159.6392 80.448,409.7824 3.771,592.0475 -30.168,71.6491 -46.509,91.7611 -96.789,125.7001 -51.537,35.196 -72.9059,41.481 -133.2419,41.481 h -72.906 l -55.309,110.6161 c -67.878,135.7563 -160.896,248.8863 -265.227,323.0493 -76.677,55.308 -81.705,56.565 -173.466,56.565 -125.7,0 -209.92,-31.425 -316.765,-119.415 l -84.219,-69.135 -82.963,69.135 c -98.046,81.705 -199.863,119.415 -321.792,119.415 -67.878,0 -85.476,-5.028 -145.8118,-45.252 -129.471,-85.476 -247.629,-213.69 -309.222,-335.6193 l -55.308,-109.3591 h -70.392 c -60.336,0 -77.934,-6.285 -119.415,-38.967 -27.6543,-21.369 -71.6493,-77.9341 -99.3034,-125.7001 -65.364,-110.6161 -86.733,-242.6012 -65.364,-406.0113 12.57,-93.0181 21.369,-116.9011 67.8781,-188.5502 71.649,-106.845 145.8123,-158.3821 230.0313,-158.3821 h 62.85 l 59.079,-116.9011 c 65.364,-128.2141 142.041,-212.4332 275.283,-304.1942 75.4198,-51.5371 85.4758,-55.3081 167.1808,-55.3081 52.794,-1.257 121.929,8.799 175.98,25.14 z"
       id="path1-2-3-2-5-0"
       style="fill:#000000;stroke:none;stroke-width:0;stroke-dasharray:none" /><path
       style="fill:none;stroke:#000000;stroke-width:22.5;stroke-linecap:butt;stroke-linejoin:miter;stroke-dasharray:none;stroke-opacity:1"
       d="m 6299.7784,6484.0325 7.229,2075.1057"
       id="path91-1-2" /><path
       d="m 2964.8347,8416.3148 c -128.214,81.705 -225.003,187.293 -287.853,312.993 l -51.537,103.074 h -60.336 c -81.7051,0 -162.1531,56.565 -237.5731,170.952 -52.7939,77.9343 -59.0789,94.2753 -70.3919,197.3494 -20.112,175.9801 1.257,305.4512 67.8779,423.6093 72.906,128.2141 135.756,175.9802 231.2881,175.9802 h 70.392 l 47.766,103.0741 c 40.224,87.9902 65.364,120.6722 153.354,204.8912 57.822,56.565 135.756,120.672 170.952,143.298 65.364,40.224 69.135,41.481 169.695,35.196 201.12,-13.827 225.003,-22.626 326.82,-119.415 l 59.08,-56.565 70.3924,60.336 c 101.817,86.733 188.551,118.158 320.536,119.415 105.587,0 108.101,-1.257 189.806,-55.308 109.359,-72.906 197.349,-177.237 267.741,-319.2782 l 57.823,-115.6441 h 70.392 c 56.565,0 82.962,-7.542 137.013,-40.2241 60.336,-35.196 70.392,-47.766 105.588,-134.4991 82.962,-201.1201 81.705,-457.5483 -3.771,-625.9867 -37.71,-76.677 -50.28,-89.247 -118.158,-126.957 -56.565,-30.168 -90.504,-40.224 -137.013,-40.224 h -62.85 l -45.253,-98.046 c -56.565,-124.443 -168.438,-260.199 -268.998,-326.82 -76.677,-51.537 -81.705,-52.794 -186.036,-52.794 -137.012,0 -226.26,31.425 -324.306,116.901 l -72.9064,62.85 -65.365,-64.107 c -55.308,-54.051 -79.191,-67.878 -159.639,-89.247 -54.051,-15.084 -130.728,-26.397 -182.265,-26.397 -84.219,0 -93.018,3.771 -182.265,61.593 z m 356.988,-10.056 c 75.42,21.369 100.56,37.71 159.639,95.532 l 70.393,67.878 84.2194,-70.392 c 108.102,-91.761 178.495,-119.415 309.223,-119.415 96.788,0 103.073,1.257 179.75,52.794 101.817,67.878 194.835,181.008 262.713,316.764 l 52.795,108.102 h 61.593 c 46.509,0 80.448,10.056 134.499,40.224 62.85,33.939 76.677,49.023 110.616,118.158 79.191,159.6394 80.448,409.7826 3.771,592.0477 -30.168,71.6491 -46.509,91.7611 -96.789,125.7001 -51.537,35.196 -72.906,41.481 -133.242,41.481 h -72.906 l -55.309,110.6161 c -67.878,135.7563 -160.896,248.8863 -265.227,323.0493 -76.677,55.308 -81.705,56.565 -173.466,56.565 -125.699,0 -209.919,-31.425 -316.764,-119.415 l -84.2194,-69.135 -82.963,69.135 c -98.046,81.705 -199.863,119.415 -321.792,119.415 -67.878,0 -85.476,-5.028 -145.812,-45.252 -129.471,-85.476 -247.629,-213.69 -309.222,-335.6193 l -55.308,-109.3591 h -70.392 c -60.336,0 -77.934,-6.285 -119.4151,-38.967 -27.654,-21.369 -71.649,-77.9341 -99.303,-125.7001 -65.3639,-110.6161 -86.7329,-242.6012 -65.3639,-406.0113 12.5699,-93.0181 21.3689,-116.9011 67.8779,-188.5504 71.649,-106.845 145.8121,-158.382 230.0311,-158.382 h 62.85 l 59.079,-116.901 c 65.364,-128.214 142.041,-212.433 275.283,-304.194 75.42,-51.537 85.476,-55.308 167.181,-55.308 52.794,-1.257 121.929,8.799 175.98,25.14 z"
       id="path1-2-3-2-5-2-0-2-3-4"
       style="fill:#000000;stroke:none;stroke-width:0;stroke-dasharray:none" /><path
       d="m 8513.4783,8400.7938 c -128.214,81.705 -225.003,187.293 -287.853,312.993 l -51.537,103.074 h -60.336 c -81.705,0 -162.153,56.565 -237.573,170.952 -52.794,77.9339 -59.079,94.2749 -70.392,197.349 -20.112,175.9801 1.257,305.4512 67.878,423.6093 72.906,128.2141 135.756,175.9802 231.288,175.9802 h 70.392 l 47.766,103.0741 c 40.224,87.99 65.364,120.6716 153.354,204.8916 57.822,56.565 135.756,120.672 170.952,143.298 65.364,40.224 69.135,41.481 169.695,35.196 201.12,-13.827 225.003,-22.626 326.82,-119.415 l 59.08,-56.565 70.392,60.336 c 101.817,86.733 188.5511,118.158 320.5361,119.415 105.588,0 108.102,-1.257 189.807,-55.308 109.359,-72.906 197.349,-177.237 267.741,-319.2786 l 57.8226,-115.6441 h 70.392 c 56.565,0 82.962,-7.542 137.013,-40.2241 60.336,-35.196 70.392,-47.766 105.588,-134.4991 82.962,-201.1201 81.705,-457.5483 -3.771,-625.9863 -37.71,-76.677 -50.28,-89.247 -118.158,-126.957 -56.565,-30.168 -90.504,-40.224 -137.013,-40.224 h -62.85 l -45.2526,-98.046 c -56.565,-124.443 -168.438,-260.199 -268.998,-326.82 -76.677,-51.537 -81.705,-52.794 -186.036,-52.794 -137.013,0 -226.2611,31.425 -324.3071,116.901 l -72.906,62.85 -65.365,-64.107 c -55.308,-54.051 -79.191,-67.878 -159.639,-89.247 -54.051,-15.084 -130.728,-26.397 -182.265,-26.397 -84.219,0 -93.018,3.771 -182.265,61.593 z m 356.988,-10.056 c 75.42,21.369 100.56,37.71 159.639,95.532 l 70.393,67.878 84.219,-70.392 c 108.102,-91.761 178.4951,-119.415 309.2231,-119.415 96.789,0 103.074,1.257 179.751,52.794 101.817,67.878 194.835,181.008 262.713,316.764 l 52.795,108.102 h 61.5926 c 46.509,0 80.448,10.056 134.499,40.224 62.85,33.939 76.677,49.023 110.616,118.158 79.191,159.639 80.448,409.7822 3.771,592.0473 -30.168,71.6491 -46.509,91.7611 -96.789,125.7001 -51.537,35.196 -72.906,41.481 -133.242,41.481 h -72.9056 l -55.309,110.6161 c -67.878,135.7557 -160.896,248.8867 -265.227,323.0497 -76.677,55.308 -81.705,56.565 -173.466,56.565 -125.7,0 -209.9201,-31.425 -316.7651,-119.415 l -84.219,-69.135 -82.963,69.135 c -98.046,81.705 -199.863,119.415 -321.792,119.415 -67.878,0 -85.476,-5.028 -145.812,-45.252 -129.471,-85.476 -247.629,-213.691 -309.222,-335.6197 l -55.308,-109.3591 h -70.392 c -60.336,0 -77.934,-6.285 -119.415,-38.967 -27.654,-21.369 -71.649,-77.9341 -99.303,-125.7001 -65.364,-110.6161 -86.733,-242.6012 -65.364,-406.0113 12.57,-93.0181 21.369,-116.9011 67.878,-188.55 71.649,-106.845 145.812,-158.382 230.031,-158.382 h 62.85 l 59.079,-116.901 c 65.364,-128.214 142.041,-212.433 275.283,-304.194 75.42,-51.537 85.476,-55.308 167.181,-55.308 52.794,-1.257 121.929,8.799 175.98,25.14 z"
       id="path1-2-3-2-5-2-0-29-9-4"
       style="fill:#000000;stroke:none;stroke-width:0;stroke-dasharray:none" /><path
       d="m 11273.384,8385.2718 c -128.214,81.705 -225.003,187.293 -287.853,312.993 l -51.537,103.074 h -60.336 c -81.705,0 -162.153,56.565 -237.573,170.952 -52.794,77.9345 -59.079,94.2755 -70.392,197.3496 -20.112,175.9801 1.257,305.4512 67.878,423.6093 72.906,128.2141 135.756,175.9802 231.288,175.9802 h 70.392 l 47.766,103.0741 c 40.224,87.99 65.364,120.672 153.354,204.891 57.822,56.565 135.756,120.672 170.952,143.298 65.364,40.224 69.135,41.481 169.695,35.196 201.12,-13.827 225.003,-22.626 326.82,-119.415 l 59.08,-56.565 70.392,60.336 c 101.817,86.733 188.551,118.158 320.536,119.415 105.588,0 108.102,-1.257 189.807,-55.308 109.359,-72.906 197.349,-177.237 267.741,-319.278 l 57.823,-115.6441 h 70.392 c 56.565,0 82.962,-7.542 137.013,-40.2241 60.336,-35.196 70.392,-47.766 105.588,-134.4991 82.962,-201.1201 81.705,-457.5483 -3.771,-625.9869 -37.71,-76.677 -50.28,-89.247 -118.158,-126.957 -56.565,-30.168 -90.504,-40.224 -137.013,-40.224 h -62.85 l -45.253,-98.046 c -56.565,-124.443 -168.438,-260.199 -268.998,-326.82 -76.677,-51.537 -81.705,-52.794 -186.036,-52.794 -137.013,0 -226.261,31.425 -324.307,116.901 l -72.906,62.85 -65.365,-64.107 c -55.308,-54.051 -79.191,-67.878 -159.639,-89.247 -54.051,-15.084 -130.728,-26.397 -182.265,-26.397 -84.219,0 -93.018,3.771 -182.265,61.593 z m 356.988,-10.056 c 75.42,21.369 100.56,37.71 159.639,95.532 l 70.393,67.878 84.219,-70.392 c 108.102,-91.761 178.495,-119.415 309.223,-119.415 96.789,0 103.074,1.257 179.751,52.794 101.817,67.878 194.835,181.008 262.713,316.764 l 52.795,108.102 h 61.593 c 46.509,0 80.448,10.056 134.499,40.224 62.85,33.939 76.677,49.023 110.616,118.158 79.191,159.6395 80.448,409.7827 3.771,592.0478 -30.168,71.6491 -46.509,91.7611 -96.789,125.7001 -51.537,35.196 -72.906,41.481 -133.242,41.481 h -72.906 l -55.309,110.6161 c -67.878,135.7562 -160.896,248.8862 -265.227,323.0492 -76.677,55.308 -81.705,56.565 -173.466,56.565 -125.7,0 -209.92,-31.425 -316.765,-119.415 l -84.219,-69.135 -82.963,69.135 c -98.046,81.705 -199.863,119.415 -321.792,119.415 -67.878,0 -85.476,-5.028 -145.812,-45.252 -129.471,-85.476 -247.629,-213.6901 -309.222,-335.6192 l -55.308,-109.3591 h -70.392 c -60.336,0 -77.934,-6.285 -119.415,-38.967 -27.654,-21.369 -71.649,-77.9341 -99.303,-125.7001 -65.364,-110.6161 -86.733,-242.6013 -65.364,-406.0113 12.57,-93.0181 21.369,-116.901 67.878,-188.5505 71.649,-106.845 145.812,-158.382 230.031,-158.382 h 62.85 l 59.079,-116.901 c 65.364,-128.214 142.041,-212.433 275.283,-304.194 75.42,-51.537 85.476,-55.308 167.181,-55.308 52.794,-1.257 121.929,8.799 175.98,25.14 z"
       id="path1-2-3-2-5-2-0-29-1-0-1"
       style="fill:#000000;stroke:none;stroke-width:0;stroke-dasharray:none" /><path
       d="m 176.09586,8416.3148 c -128.213999,81.705 -225.002999,187.293 -287.853,312.993 l -51.537,103.074 h -60.336 c -81.705,0 -162.153,56.565 -237.573,170.952 -52.794,77.9343 -59.079,94.2753 -70.392,197.3494 -20.112,175.9801 1.257,305.4512 67.878,423.6093 72.906,128.2141 135.756,175.9802 231.288,175.9802 h 70.392 l 47.766,103.0741 c 40.224,87.9902 65.364001,120.6722 153.354001,204.8912 57.822,56.565 135.755999,120.672 170.951999,143.298 65.364,40.224 69.135,41.481 169.695,35.196 201.12,-13.827 225.003,-22.626 326.82,-119.415 l 59.08,-56.565 70.3924,60.336 c 101.817,86.733 188.55104,118.158 320.53604,119.415 105.587,0 108.101,-1.257 189.806,-55.308 109.359,-72.906 197.349,-177.237 267.741,-319.2782 l 57.823,-115.6441 h 70.392 c 56.565,0 82.962,-7.542 137.013,-40.2241 60.336,-35.196 70.392,-47.766 105.588,-134.4991 82.962,-201.1201 81.705,-457.5483 -3.771,-625.9867 -37.71,-76.677 -50.28,-89.247 -118.158,-126.957 -56.565,-30.168 -90.504,-40.224 -137.013,-40.224 h -62.85 l -45.253,-98.046 c -56.565,-124.443 -168.438,-260.199 -268.998,-326.82 -76.677,-51.537 -81.705,-52.794 -186.036,-52.794 -137.012,0 -226.26004,31.425 -324.30604,116.901 l -72.9064,62.85 -65.365,-64.107 c -55.308,-54.051 -79.191,-67.878 -159.639,-89.247 -54.051,-15.084 -130.728,-26.397 -182.265,-26.397 -84.219,0 -93.018,3.771 -182.265,61.593 z m 356.988,-10.056 c 75.42,21.369 100.56,37.71 159.639,95.532 l 70.393,67.878 84.2194,-70.392 c 108.102,-91.761 178.49504,-119.415 309.22304,-119.415 96.788,0 103.073,1.257 179.75,52.794 101.817,67.878 194.835,181.008 262.713,316.764 l 52.795,108.102 h 61.593 c 46.509,0 80.448,10.056 134.499,40.224 62.85,33.939 76.677,49.023 110.616,118.158 79.191,159.6394 80.448,409.7826 3.771,592.0477 -30.168,71.6491 -46.509,91.7611 -96.789,125.7001 -51.537,35.196 -72.906,41.481 -133.242,41.481 h -72.906 l -55.309,110.6161 c -67.878,135.7563 -160.896,248.8863 -265.227,323.0493 -76.677,55.308 -81.705,56.565 -173.466,56.565 -125.699,0 -209.91904,-31.425 -316.76404,-119.415 l -84.2194,-69.135 -82.963,69.135 c -98.046,81.705 -199.863,119.415 -321.792,119.415 -67.878,0 -85.476,-5.028 -145.812,-45.252 -129.470999,-85.476 -247.628999,-213.69 -309.222,-335.6193 l -55.308,-109.3591 h -70.392 c -60.336,0 -77.934,-6.285 -119.415,-38.967 -27.654,-21.369 -71.649,-77.9341 -99.303,-125.7001 -65.364,-110.6161 -86.733,-242.6012 -65.364,-406.0113 12.57,-93.0181 21.369,-116.9011 67.878,-188.5504 71.649,-106.845 145.812,-158.382 230.031,-158.382 h 62.85 l 59.079,-116.901 c 65.364001,-128.214 142.041001,-212.433 275.283,-304.194 75.42,-51.537 85.476,-55.308 167.181,-55.308 52.794,-1.257 121.929,8.799 175.98,25.14 z"
       id="path1-2-3-2-5-2-0-2-2-5-9"
       style="fill:#000000;stroke:none;stroke-width:0;stroke-dasharray:none" /><path
       style="fill:none;stroke:#000000;stroke-width:22.5;stroke-linecap:butt;stroke-linejoin:miter;stroke-dasharray:none;stroke-opacity:1"
       d="M 4125.0469,8432.6559 5999.4464,6401.4931"
       id="path1-0" /><path
       style="fill:none;stroke:#000000;stroke-width:22.5;stroke-linecap:butt;stroke-linejoin:miter;stroke-dasharray:none;stroke-opacity:1"
       d="M 1336.3083,8432.6559 5770.9264,6125.344"
       id="path2-2" /><path
       style="fill:none;stroke:#000000;stroke-width:22.673;stroke-linecap:butt;stroke-linejoin:miter;stroke-dasharray:none;stroke-opacity:1"
       d="M 6839.2524,6115.364 11287.211,8405.3838"
       id="path3-1" /><path
       style="fill:none;stroke:#000000;stroke-width:22.5;stroke-linecap:butt;stroke-linejoin:miter;stroke-dasharray:none;stroke-opacity:1"
       d="M 6647.4994,6378.8636 8527.3053,8405.9057"
       id="path4-5" /><path
       style="fill:none;stroke:#000000;stroke-width:22.5;stroke-linecap:butt;stroke-linejoin:miter;stroke-dasharray:none;stroke-opacity:1"
       d="m 14313.675,5588.7302 1139.159,-744.5993"
       id="path5" /><path
       style="fill:none;stroke:#000000;stroke-width:22.5;stroke-linecap:butt;stroke-linejoin:miter;stroke-dasharray:none;stroke-opacity:1"
       d="m 14307.52,6341.9878 1170.626,549.4313"
       id="path6" /><text
       xml:space="preserve"
       style="font-size:320px;line-height:1.25;font-family:'Latin Modern Math';-inkscape-font-specification:'Latin Modern Math';stroke-width:7.5"
       x="5136.1226"
       y="-6008.8042"
       id="text6"
       transform="scale(1,-1)"><tspan
         sodipodi:role="line"
         id="tspan6"
         style="stroke-width:7.5"
         x="5136.1226"
         y="-6008.8042">1</tspan></text><text
       xml:space="preserve"
       style="font-size:320px;line-height:1.25;font-family:'Latin Modern Math';-inkscape-font-specification:'Latin Modern Math';stroke-width:7.5"
       x="5281.0688"
       y="-6476.0181"
       id="text7"
       transform="scale(1,-1)"><tspan
         sodipodi:role="line"
         id="tspan7"
         style="stroke-width:7.5"
         x="5281.0688"
         y="-6476.0181">2</tspan></text><text
       xml:space="preserve"
       style="font-size:320px;line-height:1.25;font-family:'Latin Modern Math';-inkscape-font-specification:'Latin Modern Math';stroke-width:7.5"
       x="5774.7812"
       y="-6786.1987"
       id="text8"
       transform="scale(1,-1)"><tspan
         sodipodi:role="line"
         id="tspan8"
         style="stroke-width:7.5"
         x="5774.7812"
         y="-6786.1987">3</tspan></text><text
       xml:space="preserve"
       style="font-size:320px;line-height:1.25;font-family:'Latin Modern Math';-inkscape-font-specification:'Latin Modern Math';stroke-width:7.5"
       x="6360.5127"
       y="-7003.27"
       id="text9"
       transform="scale(1,-1)"><tspan
         sodipodi:role="line"
         id="tspan9"
         style="stroke-width:7.5"
         x="6360.5127"
         y="-7003.27">4</tspan></text><text
       xml:space="preserve"
       style="font-size:320px;line-height:1.25;font-family:'Latin Modern Math';-inkscape-font-specification:'Latin Modern Math';stroke-width:7.5"
       x="6814.667"
       y="-6786.1987"
       id="text10"
       transform="scale(1,-1)"><tspan
         sodipodi:role="line"
         id="tspan10"
         style="stroke-width:7.5"
         x="6814.667"
         y="-6786.1987">5</tspan></text><text
       xml:space="preserve"
       style="font-size:320px;line-height:1.25;font-family:'Latin Modern Math';-inkscape-font-specification:'Latin Modern Math';stroke-width:7.5"
       x="7174.4399"
       y="-6479.5381"
       id="text11"
       transform="scale(1,-1)"><tspan
         sodipodi:role="line"
         id="tspan11"
         style="stroke-width:7.5"
         x="7174.4399"
         y="-6479.5381">6</tspan></text><text
       xml:space="preserve"
       style="font-size:320px;line-height:1.25;font-family:'Latin Modern Math';-inkscape-font-specification:'Latin Modern Math';stroke-width:7.5"
       x="7378.6533"
       y="-6005.604"
       id="text12"
       transform="scale(1,-1)"><tspan
         sodipodi:role="line"
         id="tspan12"
         style="stroke-width:7.5"
         x="7378.6533"
         y="-6005.604">7</tspan></text><text
       xml:space="preserve"
       style="font-size:320px;line-height:1.25;font-family:'Latin Modern Math';-inkscape-font-specification:'Latin Modern Math';stroke-width:7.5"
       x="12997.846"
       y="-5998.564"
       id="text13"
       transform="scale(1,-1)"><tspan
         sodipodi:role="line"
         id="tspan13"
         style="stroke-width:7.5"
         x="12997.846"
         y="-5998.564">1</tspan></text><text
       xml:space="preserve"
       style="font-size:320px;line-height:1.25;font-family:'Latin Modern Math';-inkscape-font-specification:'Latin Modern Math';stroke-width:7.5"
       x="14501.442"
       y="-6611.6689"
       id="text14"
       transform="scale(1,-1)"><tspan
         sodipodi:role="line"
         id="tspan14"
         style="stroke-width:7.5"
         x="14501.442"
         y="-6611.6689">2</tspan></text><text
       xml:space="preserve"
       style="font-size:320px;line-height:1.25;font-family:'Latin Modern Math';-inkscape-font-specification:'Latin Modern Math';stroke-width:7.5"
       x="14519.002"
       y="-5521.4253"
       id="text15"
       transform="scale(1,-1)"><tspan
         sodipodi:role="line"
         id="tspan15"
         style="stroke-width:7.5"
         x="14519.002"
         y="-5521.4253">3</tspan></text><text
       xml:space="preserve"
       style="font-size:320px;line-height:1.25;font-family:'Latin Modern Math';-inkscape-font-specification:'Latin Modern Math';stroke-width:7.5"
       x="13313.998"
       y="-5053.9375"
       id="text16"
       transform="scale(1,-1)"><tspan
         sodipodi:role="line"
         id="tspan16"
         style="stroke-width:7.5"
         x="13313.998"
         y="-5053.9375">4</tspan></text><text
       xml:space="preserve"
       style="font-size:320px;line-height:1.25;font-family:'Latin Modern Math';-inkscape-font-specification:'Latin Modern Math';stroke-width:7.5"
       x="11290.606"
       y="-3941.7898"
       id="text17"
       transform="scale(1,-1)"><tspan
         sodipodi:role="line"
         id="tspan17"
         style="stroke-width:7.5"
         x="11290.606"
         y="-3941.7898">1</tspan></text><text
       xml:space="preserve"
       style="font-size:320px;line-height:1.25;font-family:'Latin Modern Math';-inkscape-font-specification:'Latin Modern Math';stroke-width:7.5"
       x="11562.955"
       y="-3206.7102"
       id="text18"
       transform="scale(1,-1)"><tspan
         sodipodi:role="line"
         id="tspan18"
         style="stroke-width:7.5"
         x="11562.955"
         y="-3206.7102">2</tspan></text><text
       xml:space="preserve"
       style="font-size:320px;line-height:1.25;font-family:'Latin Modern Math';-inkscape-font-specification:'Latin Modern Math';stroke-width:7.5"
       x="11432.715"
       y="-2753.2305"
       id="text19"
       transform="scale(1,-1)"><tspan
         sodipodi:role="line"
         id="tspan19"
         style="stroke-width:7.5"
         x="11432.715"
         y="-2753.2305">3</tspan></text><text
       xml:space="preserve"
       style="font-size:320px;line-height:1.25;font-family:'Latin Modern Math';-inkscape-font-specification:'Latin Modern Math';stroke-width:7.5"
       x="10926.507"
       y="-2435.7485"
       id="text20"
       transform="scale(1,-1)"><tspan
         sodipodi:role="line"
         id="tspan20"
         style="stroke-width:7.5"
         x="10926.507"
         y="-2435.7485">4</tspan></text><text
       xml:space="preserve"
       style="font-size:320px;line-height:1.25;font-family:'Latin Modern Math';-inkscape-font-specification:'Latin Modern Math';stroke-width:7.5"
       x="10449.789"
       y="-2533.0706"
       id="text21"
       transform="scale(1,-1)"><tspan
         sodipodi:role="line"
         id="tspan21"
         style="stroke-width:7.5"
         x="10449.789"
         y="-2533.0706">5</tspan></text><text
       xml:space="preserve"
       style="font-size:320px;line-height:1.25;font-family:'Latin Modern Math';-inkscape-font-specification:'Latin Modern Math';stroke-width:7.5"
       x="10065.535"
       y="-2815.1636"
       id="text22"
       transform="scale(1,-1)"><tspan
         sodipodi:role="line"
         id="tspan22"
         style="stroke-width:7.5"
         x="10065.535"
         y="-2815.1636">6</tspan></text><text
       xml:space="preserve"
       style="font-size:320px;line-height:1.25;font-family:'Latin Modern Math';-inkscape-font-specification:'Latin Modern Math';stroke-width:7.5"
       x="-369.64697"
       y="-9242.6123"
       id="text23"
       transform="scale(1,-1)"><tspan
         sodipodi:role="line"
         id="tspan23"
         style="stroke-width:7.5"
         x="-369.64697"
         y="-9242.6123">192.168.36.0/22</tspan></text><text
       xml:space="preserve"
       style="font-size:320px;line-height:1.25;font-family:'Latin Modern Math';-inkscape-font-specification:'Latin Modern Math';stroke-width:7.5"
       x="2426.2844"
       y="-9242.6123"
       id="text23-4"
       transform="scale(1,-1)"><tspan
         sodipodi:role="line"
         id="tspan23-7"
         style="stroke-width:7.5"
         x="2426.2844"
         y="-9242.6123">192.168.40.0/22</tspan></text><text
       xml:space="preserve"
       style="font-size:320px;line-height:1.25;font-family:'Latin Modern Math';-inkscape-font-specification:'Latin Modern Math';stroke-width:7.5"
       x="5194.9531"
       y="-9242.6123"
       id="text23-4-9"
       transform="scale(1,-1)"><tspan
         sodipodi:role="line"
         id="tspan23-7-5"
         style="stroke-width:7.5"
         x="5194.9531"
         y="-9242.6123">192.168.44.0/22</tspan></text><text
       xml:space="preserve"
       style="font-size:320px;line-height:1.25;font-family:'Latin Modern Math';-inkscape-font-specification:'Latin Modern Math';stroke-width:7.5"
       x="7972.8076"
       y="-9227.0918"
       id="text23-4-9-0"
       transform="scale(1,-1)"><tspan
         sodipodi:role="line"
         id="tspan23-7-5-2"
         style="stroke-width:7.5"
         x="7972.8076"
         y="-9227.0918">192.168.48.0/22</tspan></text><text
       xml:space="preserve"
       style="font-size:320px;line-height:1.25;font-family:'Latin Modern Math';-inkscape-font-specification:'Latin Modern Math';stroke-width:7.5"
       x="10749.965"
       y="-9211.5693"
       id="text23-4-9-0-3"
       transform="scale(1,-1)"><tspan
         sodipodi:role="line"
         id="tspan23-7-5-2-5"
         style="stroke-width:7.5"
         x="10749.965"
         y="-9211.5693">192.168.52.0/22</tspan></text><text
       xml:space="preserve"
       style="font-size:320px;line-height:1.25;font-family:'Latin Modern Math';-inkscape-font-specification:'Latin Modern Math';stroke-width:7.5"
       x="15721.234"
       y="-4642.2017"
       id="text23-4-9-0-3-7"
       transform="scale(1,-1)"><tspan
         sodipodi:role="line"
         id="tspan23-7-5-2-5-7"
         style="stroke-width:7.5"
         x="15721.234"
         y="-4642.2017">193.10.24.0/22</tspan></text><text
       xml:space="preserve"
       style="font-size:320px;line-height:1.25;font-family:'Latin Modern Math';-inkscape-font-specification:'Latin Modern Math';stroke-width:7.5"
       x="15551.653"
       y="59.50235"
       id="text23-4-9-0-3-7-1"
       transform="scale(1,-1)"><tspan
         sodipodi:role="line"
         id="tspan23-7-5-2-5-7-2"
         style="stroke-width:7.5"
         x="15551.653"
         y="59.50235">10.1.18.0/23</tspan></text><text
       xml:space="preserve"
       style="font-size:320px;line-height:1.25;font-family:'Latin Modern Math';-inkscape-font-specification:'Latin Modern Math';stroke-width:7.5"
       x="12780.634"
       y="75.024048"
       id="text23-4-9-0-3-7-1-0"
       transform="scale(1,-1)"><tspan
         sodipodi:role="line"
         id="tspan23-7-5-2-5-7-2-1"
         style="stroke-width:7.5"
         x="12780.634"
         y="75.024048">10.1.20.0/23</tspan></text><text
       xml:space="preserve"
       style="font-size:320px;line-height:1.25;font-family:'Latin Modern Math';-inkscape-font-specification:'Latin Modern Math';stroke-width:7.5"
       x="10019.743"
       y="73.291092"
       id="text23-4-9-0-3-7-1-0-2"
       transform="scale(1,-1)"><tspan
         sodipodi:role="line"
         id="tspan23-7-5-2-5-7-2-1-3"
         style="stroke-width:7.5"
         x="10019.743"
         y="73.291092">10.1.22.0/23</tspan></text><text
       xml:space="preserve"
       style="font-size:320px;line-height:1.25;font-family:'Latin Modern Math';-inkscape-font-specification:'Latin Modern Math';stroke-width:7.5"
       x="7258.8525"
       y="90.54525"
       id="text23-4-9-0-3-7-1-0-2-4"
       transform="scale(1,-1)"><tspan
         sodipodi:role="line"
         id="tspan23-7-5-2-5-7-2-1-3-5"
         style="stroke-width:7.5"
         x="7258.8525"
         y="90.54525">10.1.24.0/23</tspan></text><text
       xml:space="preserve"
       style="font-size:320px;line-height:1.25;font-family:'Latin Modern Math';-inkscape-font-specification:'Latin Modern Math';stroke-width:7.5"
       x="4461.022"
       y="90.54525"
       id="text23-4-9-0-3-7-1-0-2-4-1"
       transform="scale(1,-1)"><tspan
         sodipodi:role="line"
         id="tspan23-7-5-2-5-7-2-1-3-5-1"
         style="stroke-width:7.5"
         x="4461.022"
         y="90.54525">10.1.26.0/23</tspan></text><text
       xml:space="preserve"
       style="font-size:320px;line-height:1.25;font-family:'Latin Modern Math';-inkscape-font-specification:'Latin Modern Math';stroke-width:7.5"
       x="15676.025"
       y="-7113.0991"
       id="text23-4-9-0-3-7-8"
       transform="scale(1,-1)"><tspan
         sodipodi:role="line"
         id="tspan23-7-5-2-5-7-0"
         style="stroke-width:7.5"
         x="15676.025"
         y="-7113.0991">193.10.20.0/22</tspan></text></g></svg>
